<?xml version="1.0" standalone="no"?>
<!DOCTYPE svg PUBLIC "-//W3C//DTD SVG 20010904//EN"
 "http://www.w3.org/TR/2001/REC-SVG-20010904/DTD/svg10.dtd">
<svg version="1.0" xmlns="http://www.w3.org/2000/svg"
 width="260.000000pt" height="260.000000pt" viewBox="0 0 260.000000 260.000000"
 preserveAspectRatio="xMidYMid meet">
<metadata>
Created by potrace 1.14, written by Peter Selinger 2001-2017
</metadata>
<g transform="translate(0.000000,260.000000) scale(0.100000,-0.100000)"
fill="#000000" stroke="none">
<path d="M977 2587 c-8 -6 -7 -7 5 -3 10 3 20 1 23 -4 5 -9 35 -6 58 5 6 4 3
0 -7 -9 -10 -8 -23 -13 -28 -10 -4 3 -11 -1 -14 -10 -3 -8 -12 -17 -20 -20 -9
-3 -12 -1 -9 4 3 6 1 10 -5 10 -6 0 -8 5 -5 11 4 6 -2 5 -14 -3 -12 -7 -21
-16 -21 -21 0 -4 -5 -5 -10 -2 -6 4 -7 11 -4 17 4 7 2 8 -5 4 -6 -4 -9 -12 -6
-17 5 -8 -8 -11 -31 -8 -4 0 -11 -5 -16 -13 -8 -10 -9 -10 -5 2 2 8 10 14 16
13 6 -2 11 2 11 7 0 6 -3 10 -7 10 -13 -1 -43 -27 -37 -32 2 -3 -2 -8 -10 -11
-10 -4 -14 0 -11 13 2 11 0 22 -5 25 -4 3 -7 -3 -6 -12 2 -10 -4 -24 -13 -31
-9 -8 -10 -10 -2 -6 9 4 12 3 7 -4 -4 -6 -13 -9 -21 -5 -8 3 -15 0 -15 -6 0
-6 5 -11 12 -11 6 0 8 -3 4 -7 -4 -5 -14 1 -22 11 -12 17 -14 17 -14 4 0 -9
-5 -20 -11 -23 -6 -4 -9 0 -7 10 2 10 -4 20 -12 22 -13 4 -13 3 0 -6 13 -9 12
-11 -5 -12 -11 -1 -26 0 -34 1 -10 1 -9 -3 3 -16 15 -14 19 -15 27 -3 5 9 9
10 9 2 0 -19 -20 -26 -36 -12 -18 15 -26 7 -26 -27 0 -14 -4 -21 -8 -15 -4 7
-22 14 -41 16 -23 3 -29 2 -20 -4 8 -5 16 -17 17 -25 1 -9 -2 -14 -7 -10 -5 3
-6 11 -2 17 5 8 2 8 -9 0 -8 -7 -19 -9 -23 -5 -5 4 -4 1 0 -7 6 -11 4 -13 -9
-8 -10 4 -15 3 -11 -3 7 -11 -29 -32 -41 -22 -5 4 -3 0 4 -10 10 -12 10 -18 1
-24 -7 -4 -9 -3 -6 2 3 6 -3 16 -15 23 -16 10 -19 10 -12 -1 14 -22 13 -40 -2
-55 -8 -8 -14 -11 -14 -6 0 5 5 14 12 21 9 9 9 12 0 12 -7 0 -12 -4 -12 -10 0
-5 -6 -8 -12 -6 -7 1 -10 1 -5 -1 18 -11 5 -30 -18 -28 -21 3 -23 0 -16 -14 6
-10 6 -23 1 -31 -5 -8 -6 -19 -3 -25 4 -5 2 -7 -2 -2 -12 11 -14 47 -2 40 6
-4 7 -1 3 6 -8 12 -21 7 -21 -7 0 -4 -10 -17 -22 -29 -13 -13 -21 -28 -19 -35
1 -7 1 -10 -1 -5 -3 4 -11 7 -20 7 -12 0 -12 -2 1 -16 18 -17 21 -28 7 -19 -5
3 -12 1 -16 -5 -4 -6 -11 -7 -17 -4 -8 5 -9 1 -5 -12 7 -18 7 -18 -8 0 -14 19
-15 19 -15 -8 0 -17 4 -25 11 -20 8 4 8 0 0 -15 -13 -23 -23 -29 -15 -8 3 8
-4 13 -18 14 -18 2 -20 0 -8 -7 8 -5 11 -10 7 -10 -4 0 -3 -10 4 -21 6 -13 7
-19 1 -15 -14 8 -50 -45 -44 -64 2 -9 -2 -6 -11 5 -8 11 -19 17 -23 12 -4 -4
-2 -7 4 -7 18 0 14 -25 -5 -41 -15 -13 -15 -12 -4 11 11 22 10 23 -2 8 -8 -10
-17 -15 -20 -11 -4 3 -7 4 -7 0 0 -3 7 -13 16 -22 15 -14 14 -15 -10 -11 -14
2 -29 0 -32 -6 -4 -6 -3 -8 2 -5 6 3 16 2 24 -4 11 -6 11 -9 2 -9 -8 0 -11
-11 -9 -34 4 -32 2 -34 -25 -32 -16 1 -32 -2 -35 -7 -3 -6 -1 -7 5 -3 7 4 12
2 12 -4 0 -6 4 -9 8 -6 4 2 14 0 22 -6 12 -8 12 -9 -2 -4 -23 7 -42 -26 -25
-44 10 -12 9 -12 -5 -1 -21 15 -24 2 -6 -18 11 -10 9 -12 -7 -9 -15 2 -19 -2
-17 -16 2 -11 -4 -26 -14 -33 -22 -16 -10 -17 19 -2 21 11 21 11 6 -7 -18 -21
-23 -78 -6 -67 6 3 7 1 3 -5 -5 -8 -13 -8 -31 0 -13 6 -22 14 -20 19 3 4 2 10
-2 12 -11 7 -10 -95 1 -112 6 -10 6 -12 -3 -7 -9 6 -12 -41 -10 -208 1 -119 6
-216 9 -216 4 0 12 -10 19 -22 l12 -23 -5 24 c-4 17 -2 21 6 13 14 -14 2 -46
-13 -36 -8 4 -9 3 -5 -5 4 -7 17 -9 29 -6 16 5 18 4 8 -3 -16 -11 -5 -36 11
-26 7 5 8 2 3 -7 -13 -20 -18 -78 -5 -59 13 20 13 8 0 -26 -10 -24 -9 -26 5
-14 14 11 16 11 13 -1 -2 -8 -12 -20 -23 -27 -20 -13 -20 -13 1 -7 13 3 26 -1
34 -10 7 -8 16 -13 19 -10 4 2 8 -2 8 -10 0 -8 -4 -12 -9 -9 -13 8 -9 -6 6
-21 7 -8 16 -12 20 -10 3 3 2 -1 -4 -7 -13 -15 -13 -48 0 -48 5 0 6 -8 3 -17
-6 -16 -5 -16 10 -5 14 12 16 11 14 -7 -1 -15 -6 -20 -17 -16 -8 3 -4 -3 9
-13 16 -13 21 -24 16 -33 -7 -12 -6 -12 7 -1 13 10 18 10 24 1 5 -8 3 -9 -6
-4 -10 6 -12 4 -7 -8 3 -9 1 -18 -6 -21 -9 -3 -8 -5 1 -5 7 -1 10 -6 6 -13 -4
-6 -3 -8 3 -5 12 8 46 -27 36 -36 -3 -4 -1 -7 5 -7 15 0 15 13 0 28 -7 7 -9
12 -4 12 11 0 36 -27 30 -32 -2 -3 -6 -14 -8 -25 -3 -13 2 -19 17 -21 16 -1
18 1 8 7 -7 5 -9 11 -5 13 5 3 2 3 -6 1 -11 -3 -12 -1 -3 7 8 9 16 9 30 1 10
-6 13 -11 8 -11 -6 0 -11 -9 -12 -21 -2 -18 0 -19 14 -7 15 12 15 11 3 -12
-13 -24 -12 -24 5 -10 11 9 16 10 11 3 -4 -8 -2 -13 4 -13 6 0 8 -4 5 -10 -3
-5 -1 -10 5 -10 6 0 9 -4 5 -9 -3 -5 -1 -12 5 -16 6 -4 8 -11 5 -16 -3 -5 1
-6 9 -3 9 3 16 10 16 16 0 5 -5 6 -12 2 -7 -5 -8 -3 -3 6 6 9 4 11 -6 5 -8 -5
-10 -4 -6 0 9 11 37 16 36 7 -1 -4 -1 -17 0 -30 1 -19 5 -22 24 -17 22 6 21 6
-2 -8 -20 -12 -21 -15 -7 -20 12 -5 15 -3 11 6 -4 6 0 3 9 -7 8 -10 13 -23 10
-27 -3 -5 0 -9 6 -9 6 0 10 7 8 16 -2 10 4 19 12 21 13 4 13 3 0 -6 -10 -7
-11 -11 -3 -11 8 0 11 -11 9 -30 -2 -21 0 -28 8 -21 7 6 16 4 23 -4 10 -11 10
-14 0 -18 -7 -2 2 -4 20 -4 20 0 30 4 25 11 -3 6 5 4 18 -5 14 -10 24 -23 22
-31 -1 -8 5 -15 13 -16 8 -1 22 -3 30 -4 8 -1 12 -5 9 -10 -3 -4 0 -8 6 -8 6
0 8 -4 5 -10 -3 -6 1 -7 9 -4 13 5 13 10 5 27 -12 22 -12 22 8 2 19 -20 19
-20 -1 -38 -12 -10 -16 -16 -11 -13 6 2 17 1 25 -4 9 -5 19 -5 26 1 9 8 11 4
7 -13 -5 -23 -5 -23 12 -3 13 15 15 16 12 3 -8 -22 3 -30 21 -15 11 8 14 8 9
0 -4 -6 -2 -15 4 -19 8 -4 9 -3 5 4 -4 7 -2 12 5 12 8 0 8 5 -2 18 -13 16 -13
16 7 -1 11 -9 24 -14 29 -10 4 5 5 2 1 -4 -4 -8 -2 -13 5 -13 7 0 9 -3 6 -6
-4 -4 -13 -2 -20 4 -10 9 -14 8 -14 -3 0 -8 2 -13 5 -11 2 3 15 1 29 -5 17 -6
22 -6 17 3 -4 7 -3 8 5 4 7 -5 9 -17 5 -29 l-6 -22 21 23 c23 24 41 31 22 9
-11 -14 -5 -27 13 -27 6 0 5 4 -2 9 -10 6 -9 10 7 14 12 3 19 1 15 -4 -3 -5 0
-9 6 -9 6 0 13 7 17 16 5 14 8 14 17 -4 11 -20 14 -22 36 -22 6 0 10 -5 10
-11 0 -8 -4 -8 -14 0 -11 9 -16 9 -22 -1 -4 -7 -4 -10 1 -6 4 4 13 0 20 -8 10
-14 13 -12 24 15 8 17 18 31 23 31 6 0 5 -7 -2 -15 -7 -9 -10 -19 -6 -22 4 -4
12 -1 17 7 9 12 10 11 5 -4 -4 -13 -2 -17 7 -13 8 3 20 1 28 -5 11 -8 11 -9
-3 -4 -10 3 -20 1 -23 -4 -3 -5 117 -8 275 -9 173 0 278 4 275 10 -6 8 8 13
28 10 5 -1 6 3 2 9 -3 5 1 13 9 16 9 3 14 9 12 13 -8 12 46 11 61 -1 11 -8 17
-8 26 1 9 10 8 11 -4 6 -10 -4 -19 0 -23 11 -5 14 -4 15 8 5 10 -8 16 -9 21
-1 9 14 25 2 19 -14 -3 -8 -1 -17 5 -21 7 -4 8 0 4 11 -4 10 -2 15 3 11 13 -7
28 3 42 28 6 11 12 14 12 7 0 -7 5 -10 12 -6 7 4 8 3 4 -5 -4 -6 -12 -9 -17
-6 -5 4 -9 2 -9 -3 0 -6 7 -12 15 -16 8 -3 14 0 12 5 -1 6 8 13 21 15 13 2 21
0 18 -4 -2 -4 6 -8 19 -8 16 0 21 4 17 16 -5 12 -3 13 9 3 13 -10 16 -10 16 1
0 17 -26 14 -37 -3 -4 -8 -10 -9 -14 -3 -3 5 1 13 10 16 14 5 14 9 3 24 -13
15 -12 16 4 3 9 -7 17 -10 17 -6 0 4 6 2 14 -5 8 -6 23 -11 33 -10 32 4 43 0
41 -12 -2 -8 5 -12 17 -10 23 5 36 21 28 37 -4 5 -2 6 2 2 12 -11 15 -37 4
-37 -5 0 -9 -5 -9 -11 0 -5 4 -8 9 -5 5 4 11 0 14 -6 3 -10 8 -10 18 1 9 9 9
11 2 7 -7 -4 -13 -2 -13 3 0 6 7 11 15 11 8 0 15 -9 15 -19 0 -11 4 -22 9 -25
5 -4 7 2 4 13 -6 23 15 38 23 17 3 -9 10 -16 15 -16 4 0 5 8 2 17 -6 15 -5 16
9 3 9 -8 14 -18 12 -21 -2 -3 4 -6 12 -6 8 0 13 5 11 11 -3 6 6 11 18 11 15 0
21 -5 20 -15 -2 -8 -4 -17 -4 -20 -1 -3 -6 2 -11 10 -5 8 -10 10 -10 4 0 -22
14 -23 37 -2 13 12 23 20 24 17 0 -2 2 -12 4 -22 2 -9 -1 -15 -6 -11 -5 3 -9
-1 -9 -10 0 -8 -6 -16 -12 -19 -7 -2 55 -4 139 -4 142 -1 151 0 148 18 -5 25
11 34 24 12 7 -13 10 21 10 110 0 116 -2 128 -17 122 -9 -3 -13 -3 -10 1 13
12 -12 44 -30 38 -14 -5 -15 -4 -2 5 13 9 12 12 -4 24 -15 11 -16 16 -6 22 9
5 11 4 6 -3 -4 -7 -3 -12 3 -12 5 0 18 -14 28 -30 20 -35 29 -38 29 -11 0 10
-6 17 -12 14 -6 -2 -18 10 -25 26 -8 17 -17 31 -21 31 -5 0 -8 5 -8 11 0 5 4
8 8 5 4 -2 8 6 8 20 0 16 -5 23 -13 20 -7 -3 -15 0 -19 6 -4 7 -3 8 4 4 7 -4
12 -2 12 4 0 6 4 9 8 6 5 -3 9 1 9 9 0 8 -3 12 -7 10 -3 -2 -12 0 -20 6 -12 7
-12 9 -1 9 7 0 11 6 7 15 -3 8 0 15 7 16 7 0 -1 7 -18 14 -16 7 -34 11 -39 7
-5 -3 -6 0 -2 6 3 5 1 12 -6 14 -7 3 -5 7 6 11 9 4 15 3 12 -2 -3 -5 1 -12 10
-15 25 -9 27 -7 10 10 -9 8 -14 20 -10 25 7 12 -18 7 -29 -6 -5 -6 -7 -3 -3 7
3 11 0 18 -7 18 -8 0 -8 3 2 9 8 5 11 16 7 26 -5 13 -2 16 10 11 14 -5 15 -4
4 9 -7 8 -17 12 -23 8 -6 -3 -7 -1 -3 6 4 6 11 9 16 6 5 -3 11 -1 14 4 4 5 1
13 -5 17 -8 4 -9 3 -5 -4 5 -8 1 -10 -9 -5 -12 4 -13 8 -5 13 6 4 11 10 11 14
-3 21 1 27 14 23 8 -4 17 -1 21 5 4 7 3 8 -4 4 -7 -4 -12 -3 -12 3 0 5 5 11
12 13 7 3 5 7 -6 11 -9 4 -15 3 -11 -2 3 -5 0 -13 -6 -17 -7 -4 -9 -3 -5 4 3
5 0 13 -6 15 -10 4 -10 6 0 6 7 1 10 6 6 13 -4 6 -3 8 3 5 12 -8 27 20 24 43
-2 13 0 13 8 1 6 -10 5 -21 -5 -36 -12 -19 -12 -21 9 -22 17 -2 19 0 7 7 -12
8 -12 12 -2 18 8 5 10 16 6 27 -5 12 -4 16 4 11 6 -3 14 -2 17 4 4 6 3 10 -2
9 -25 -4 -36 3 -16 11 21 9 24 33 8 60 -3 6 -2 10 3 10 13 0 22 39 11 46 -5 3
-9 2 -8 -3 4 -22 -3 -33 -18 -33 -15 0 -16 2 -3 10 8 5 15 13 15 17 2 20 17
53 26 53 5 0 9 6 9 14 0 8 5 18 11 22 7 4 9 0 5 -12 -3 -11 -2 -25 3 -32 5 -8
9 94 9 233 1 227 -1 248 -18 265 -10 10 -21 16 -24 13 -3 -4 -6 -3 -6 1 0 4 7
15 16 23 12 13 15 13 14 2 -4 -23 0 -39 8 -39 12 0 8 63 -5 85 -7 11 -13 14
-13 7 0 -7 -4 -10 -10 -7 -5 3 -10 1 -10 -5 0 -6 7 -10 16 -8 10 2 19 -4 22
-12 3 -8 1 -12 -3 -7 -5 4 -20 0 -34 -10 -23 -15 -25 -15 -13 0 8 9 11 21 7
27 -4 6 -1 18 7 27 9 12 9 15 1 9 -7 -4 -13 -3 -13 3 0 5 -3 17 -7 27 -4 10
-2 15 3 11 6 -3 10 5 10 18 0 14 -6 27 -13 29 -14 6 -14 -15 0 -25 5 -3 2 -9
-6 -12 -10 -4 -13 2 -12 21 0 15 6 27 12 27 6 0 15 4 20 9 4 5 3 6 -3 3 -7 -4
-14 0 -18 8 -3 8 0 15 7 15 8 0 7 4 -3 10 -10 6 -20 4 -31 -6 -14 -12 -16 -12
-16 1 0 8 4 12 8 10 4 -3 9 2 12 9 6 16 -16 40 -26 29 -4 -3 -7 -1 -7 6 0 7
-5 9 -12 5 -10 -6 -10 -4 -1 7 7 7 13 24 13 37 0 18 -4 23 -18 20 -13 -4 -18
1 -20 19 -1 14 2 21 8 18 6 -4 8 -10 6 -14 -3 -4 1 -8 8 -8 7 0 13 6 13 13 0
7 -3 11 -7 9 -13 -8 -42 33 -34 47 4 7 4 10 -1 6 -4 -4 -14 -1 -21 7 -15 15
-19 29 -6 21 5 -3 9 2 9 11 0 12 -5 11 -19 -7 -20 -24 -24 -20 -8 10 8 15 5
22 -12 34 -12 9 -19 16 -14 16 5 0 3 6 -3 13 -6 8 -8 17 -5 20 4 4 -3 5 -15 2
-11 -2 -21 0 -21 6 0 5 -5 9 -12 9 -6 0 -3 -8 7 -20 10 -11 21 -17 26 -15 4 3
11 1 14 -5 4 -7 -3 -10 -22 -7 -15 2 -28 10 -28 18 -1 8 -7 13 -15 11 -11 -3
-11 0 1 14 13 15 11 16 -11 10 -25 -6 -25 -6 -2 5 34 18 27 46 -10 40 -5 0 -8
4 -8 10 0 5 -4 7 -10 4 -6 -4 -10 5 -10 19 0 16 -5 25 -12 23 -7 -1 -12 3 -11
9 2 11 -11 14 -56 15 -18 1 -21 3 -10 10 12 7 12 9 -1 10 -8 1 -18 1 -22 0 -5
0 -8 4 -8 9 0 13 5 13 43 -5 29 -14 30 -14 13 0 -11 8 -25 15 -30 15 -6 0 -4
5 4 11 11 8 9 9 -10 4 -14 -4 -27 -7 -30 -7 -22 0 -30 3 -26 11 3 5 -5 16 -19
25 -14 9 -25 22 -25 28 0 7 6 4 13 -6 7 -9 21 -19 32 -20 13 -2 19 -10 17 -21
-2 -9 1 -14 7 -11 15 10 9 43 -9 43 -33 0 -40 4 -40 19 0 10 -6 14 -15 11 -9
-4 -24 6 -39 25 -23 30 -24 30 -31 9 l-7 -23 -15 21 c-8 12 -18 19 -22 17 -4
-3 -13 -1 -20 3 -10 6 -9 10 4 14 11 5 14 3 9 -6 -4 -6 -3 -9 1 -4 5 4 18 -1
29 -10 15 -14 18 -14 8 -2 -6 9 -8 20 -4 24 4 5 2 5 -5 1 -6 -3 -14 -2 -18 3
-4 7 -15 7 -32 0 -23 -9 -24 -8 -13 6 10 12 11 18 1 28 -10 9 -11 8 -5 -8 6
-18 4 -17 -22 5 -15 14 -22 17 -15 8 10 -13 10 -18 2 -18 -7 0 -9 -5 -5 -12 4
-7 3 -8 -5 -4 -6 4 -9 11 -6 16 9 14 -19 30 -35 20 -28 -18 -35 -10 -7 8 15
10 24 21 21 25 -4 3 -13 0 -21 -8 -10 -11 -20 -12 -32 -5 -10 5 -21 7 -24 3
-4 -3 -13 0 -22 7 -10 8 -15 9 -15 1 0 -6 -5 -11 -11 -11 -8 0 -8 5 1 15 7 8
16 12 21 9 5 -3 9 -1 9 4 0 6 -11 9 -24 8 -13 0 -22 -5 -19 -9 2 -4 -6 -6 -19
-3 -36 7 -58 17 -58 28 0 5 5 6 11 3 7 -5 6 0 -1 12 -13 21 -90 28 -102 9 -6
-8 -8 -8 -8 1 0 15 -493 15 -513 0z m553 -1 c0 -3 -4 -8 -10 -11 -5 -3 -10 -1
-10 4 0 6 5 11 10 11 6 0 10 -2 10 -4z m40 -8 c0 -5 4 -6 10 -3 6 3 7 -1 4 -9
-3 -9 -10 -16 -16 -16 -5 0 -6 5 -3 10 3 6 -1 10 -10 10 -9 0 -14 -4 -11 -8 3
-5 -1 -9 -8 -9 -11 0 -11 5 -4 17 11 18 38 23 38 8z m-65 -26 c-3 -3 -11 0
-18 7 -9 10 -8 11 6 5 10 -3 15 -9 12 -12z m-535 -16 c0 -3 -4 -8 -10 -11 -5
-3 -10 -1 -10 4 0 6 5 11 10 11 6 0 10 -2 10 -4z m-70 -30 c0 -2 -8 -10 -17
-17 -16 -13 -17 -12 -4 4 13 16 21 21 21 13z m-70 -26 c0 -5 -5 -10 -11 -10
-5 0 -7 5 -4 10 3 6 8 10 11 10 2 0 4 -4 4 -10z m977 -12 c-3 -8 -6 -5 -6 6
-1 11 2 17 5 13 3 -3 4 -12 1 -19z m178 -67 c3 -5 2 -12 -3 -15 -5 -3 -9 1 -9
9 0 17 3 19 12 6z m26 -38 c13 -16 12 -17 -3 -4 -10 7 -18 15 -18 17 0 8 8 3
21 -13z m-1441 -8 c-14 -8 -19 -14 -12 -15 8 0 10 -5 6 -12 -6 -9 -9 -9 -12 0
-2 7 -9 10 -15 6 -7 -3 -1 4 12 15 13 12 28 21 35 21 6 -1 0 -7 -14 -15z
m1634 -134 c13 -14 14 -21 5 -27 -8 -4 -10 -3 -5 4 4 7 3 12 -2 12 -6 0 -12 7
-16 15 -7 20 -3 19 18 -4z m-1820 -37 c3 -8 2 -12 -4 -9 -6 3 -10 10 -10 16 0
14 7 11 14 -7z m1891 -24 c3 -5 1 -10 -4 -10 -6 0 -11 5 -11 10 0 6 2 10 4 10
3 0 8 -4 11 -10z m86 -111 c16 -8 18 -13 9 -25 -14 -15 -34 -9 -24 8 4 6 0 14
-7 19 -20 12 -2 11 22 -2z m62 -119 c-3 -3 -8 1 -10 8 -3 6 -8 10 -12 8 -4 -3
-7 4 -7 15 0 19 1 18 17 -3 10 -12 15 -25 12 -28z m-1298 -39 c-3 -5 0 -13 6
-17 6 -3 15 0 20 7 7 12 9 11 9 -1 0 -12 2 -12 9 -2 7 11 9 11 14 -1 4 -11 0
-15 -14 -12 -10 2 -19 0 -19 -6 0 -14 38 -5 61 14 21 18 34 22 25 8 -3 -5 1
-11 9 -14 10 -4 12 -1 8 10 -4 11 -2 14 8 11 8 -3 13 -11 11 -18 -2 -10 0 -11
11 -2 8 7 17 9 20 5 4 -3 7 -1 7 6 0 8 -7 11 -17 6 -15 -5 -16 -4 -5 7 11 11
16 10 26 -4 15 -21 27 -23 22 -5 -1 6 -1 9 1 5 3 -5 9 -8 14 -8 6 0 7 6 3 13
-5 9 -4 9 6 0 11 -10 17 -10 29 0 14 11 14 10 2 -5 -7 -10 -17 -16 -21 -13 -5
3 -11 1 -15 -4 -3 -6 6 -8 21 -5 14 3 23 1 20 -4 -3 -5 1 -9 8 -9 8 0 11 10 9
26 -3 26 -3 26 7 3 8 -18 15 -22 32 -16 20 6 21 5 9 -9 -7 -9 -17 -15 -20 -12
-4 2 -8 -2 -8 -10 0 -10 4 -12 12 -5 7 5 16 6 20 2 5 -4 5 -1 1 6 -5 9 1 12
23 10 16 -1 28 -6 25 -10 -3 -4 -10 -6 -17 -4 -7 1 -9 1 -4 -1 4 -3 4 -10 0
-16 -4 -8 -1 -8 9 1 12 10 18 10 27 -2 12 -14 45 -11 36 3 -2 4 2 8 10 8 8 0
13 -3 12 -6 0 -3 9 -22 22 -41 13 -19 21 -27 18 -18 -4 12 -2 15 8 11 8 -3 12
-9 9 -14 -5 -9 9 -12 49 -12 13 0 15 -3 8 -10 -7 -7 -7 -15 2 -25 9 -12 9 -16
0 -19 -7 -3 -13 -9 -13 -15 0 -7 5 -7 13 1 8 6 17 8 21 4 4 -4 5 -1 3 7 -2 8
-2 12 0 7 3 -4 9 -4 15 -1 6 4 6 -2 -1 -14 -7 -14 -8 -23 -1 -27 6 -4 8 -11 5
-16 -4 -5 2 -9 11 -9 16 0 16 1 0 19 -15 17 -15 19 -1 25 10 3 14 2 10 -5 -4
-6 1 -19 11 -30 10 -11 14 -20 9 -19 -27 6 -27 -2 0 -15 27 -13 27 -14 5 -10
-14 3 -19 2 -11 -1 11 -5 11 -8 0 -16 -11 -7 -9 -8 4 -4 28 9 39 -2 25 -27
-11 -21 -10 -21 7 -7 11 9 16 10 11 3 -4 -8 -2 -13 6 -13 10 0 10 -2 -1 -9 -8
-5 -16 -20 -18 -33 -2 -17 -1 -19 6 -8 5 8 8 17 5 21 -5 10 23 5 33 -5 4 -4 2
-6 -6 -4 -7 1 -16 -3 -19 -11 -3 -9 0 -11 7 -7 6 4 11 4 10 -1 -3 -19 2 -34 9
-29 5 3 9 -1 9 -9 0 -10 -4 -12 -12 -5 -7 5 -16 6 -20 2 -5 -4 -5 1 -2 10 4
12 2 15 -9 11 -11 -4 -12 -9 -3 -19 6 -8 15 -12 19 -9 8 5 20 -18 20 -38 0 -7
-7 -3 -15 7 -8 11 -15 15 -15 9 0 -6 6 -16 14 -23 8 -6 12 -19 9 -28 -4 -14
-3 -15 5 -2 6 8 9 17 6 21 -2 4 1 11 8 15 7 4 10 4 6 -1 -4 -4 0 -14 10 -22
16 -12 16 -13 0 -7 -10 3 -18 1 -18 -5 0 -6 5 -11 11 -11 6 0 9 -9 6 -20 -3
-11 0 -20 6 -20 8 0 9 -3 1 -8 -6 -4 -10 -26 -9 -50 0 -24 -5 -48 -12 -54 -7
-5 -11 -13 -9 -17 3 -4 -10 -6 -27 -5 l-32 2 23 -18 c25 -20 29 -35 8 -27 -8
3 -17 -1 -20 -9 -3 -9 -1 -12 4 -9 16 10 12 -7 -7 -29 -17 -20 -17 -20 0 -7
15 12 17 11 14 -8 -2 -12 -11 -30 -19 -41 -9 -10 -13 -22 -10 -26 4 -4 1 -4
-6 0 -9 5 -15 1 -19 -13 -3 -12 -10 -21 -15 -21 -5 0 -6 6 -2 13 5 9 4 9 -6 0
-8 -7 -15 -20 -16 -29 -2 -12 0 -14 9 -5 21 21 28 11 8 -11 -18 -18 -22 -19
-37 -7 -16 13 -16 12 -5 -9 9 -18 9 -22 -1 -20 -7 2 -12 -5 -12 -14 1 -14 -2
-15 -15 -8 -13 6 -18 5 -18 -5 0 -8 4 -12 8 -9 4 2 11 0 14 -6 4 -6 3 -10 -2
-9 -4 1 -11 0 -15 -1 -5 -1 -14 -3 -20 -4 -7 -1 -12 -8 -10 -15 1 -7 -2 -10
-8 -6 -6 3 -8 11 -5 16 4 5 1 9 -4 9 -10 0 -15 -13 -13 -31 1 -3 -6 -6 -14 -6
-10 0 -11 4 -4 11 5 5 10 14 10 19 0 4 -10 -4 -23 -19 -16 -18 -35 -28 -58
-29 -19 -2 -35 -4 -36 -5 -2 -1 -7 -4 -13 -5 -5 -1 -12 -4 -15 -5 -3 -1 -9 -3
-14 -4 -5 0 -13 -5 -18 -10 -5 -5 -3 -6 4 -2 9 5 11 2 7 -8 -3 -8 -12 -17 -20
-20 -9 -3 -12 -1 -9 4 3 6 2 10 -4 10 -5 0 -11 6 -14 13 -2 6 -2 -1 -1 -18 2
-16 1 -24 -2 -17 -3 6 -10 10 -15 6 -17 -10 -50 -13 -44 -3 4 5 1 9 -4 9 -6 0
-11 -4 -11 -10 0 -5 -5 -10 -11 -10 -5 0 -7 5 -4 10 3 6 1 10 -4 10 -6 0 -11
-5 -11 -11 0 -6 -7 -3 -16 5 -22 22 -27 20 -13 -6 12 -23 12 -23 -9 -4 -12 10
-19 23 -15 29 3 6 1 7 -5 3 -7 -4 -12 -14 -12 -22 0 -8 -5 -14 -10 -14 -6 0
-10 7 -8 16 2 10 -3 19 -9 21 -7 3 -13 0 -13 -7 0 -6 5 -8 12 -4 7 4 8 3 4 -4
-4 -6 -13 -9 -21 -5 -8 3 -15 0 -15 -7 0 -7 -6 -5 -16 5 -13 13 -19 13 -33 3
-14 -11 -14 -11 -3 4 9 11 9 17 2 20 -6 2 -12 11 -14 20 -1 10 -5 20 -9 24 -3
4 -4 -6 -2 -22 2 -16 2 -23 -1 -16 -5 10 -9 10 -22 0 -14 -10 -15 -10 -4 2 6
8 12 17 12 20 0 8 -44 5 -61 -5 -7 -4 -11 -5 -7 -1 4 5 -4 20 -18 34 -26 29
-30 42 -13 42 5 0 7 5 3 11 -4 8 -12 3 -20 -12 -12 -22 -13 -22 -15 -4 -1 11
-1 24 0 28 1 5 -3 6 -8 3 -5 -4 -8 -15 -6 -26 2 -12 0 -18 -5 -15 -5 3 -6 17
-4 31 4 23 2 26 -16 21 -11 -3 -20 -1 -20 4 0 5 5 9 10 9 6 0 10 4 10 9 0 5
-9 7 -20 4 -14 -4 -20 0 -20 11 0 10 4 15 8 12 5 -3 9 1 9 9 0 13 -4 12 -19
-2 -10 -9 -21 -13 -25 -10 -3 4 -1 7 7 7 10 0 10 3 0 15 -11 13 -10 15 1 12 8
-2 10 -2 6 1 -4 2 -2 11 5 20 10 12 7 11 -15 -3 -15 -10 -30 -15 -34 -11 -3 3
-1 6 6 6 7 0 9 5 5 12 -5 7 -2 8 7 3 12 -7 12 -5 1 6 -11 12 -14 12 -23 -1 -8
-11 -9 -9 -3 10 4 14 12 28 18 32 8 6 8 8 0 8 -6 0 -17 -7 -24 -15 -7 -8 -18
-15 -24 -15 -6 0 -3 5 6 11 9 5 15 16 12 24 -4 8 -9 13 -13 11 -4 -3 -8 4 -8
15 -2 19 -1 19 16 -2 14 -17 18 -19 18 -6 0 9 -4 14 -9 11 -4 -3 -8 0 -8 6 0
6 -6 18 -14 26 -11 11 -16 11 -20 1 -3 -6 -3 -2 0 10 4 19 2 22 -13 17 -13 -4
-14 -3 -5 3 7 6 14 25 15 44 1 19 6 41 11 49 7 12 6 13 -5 3 -20 -19 -34 -16
-18 4 10 11 10 14 2 9 -7 -4 -13 -2 -13 3 0 6 5 11 11 11 6 0 3 8 -7 18 -16
15 -16 17 -1 20 8 2 15 12 14 22 -1 10 -5 16 -9 14 -5 -3 -6 -10 -3 -15 4 -5
4 -9 1 -9 -16 0 -13 22 6 41 13 12 19 20 13 17 -5 -3 -16 1 -24 9 -12 13 -11
14 7 9 21 -7 40 8 23 18 -5 3 -7 16 -3 28 3 11 1 19 -4 16 -5 -4 -10 5 -11 19
-1 19 1 22 8 12 8 -12 13 -7 11 12 -1 3 6 6 14 6 11 0 11 -4 -3 -19 -9 -11
-11 -18 -5 -18 7 0 12 5 12 11 0 5 5 7 10 4 6 -4 7 -11 4 -17 -4 -7 -2 -8 5
-4 9 6 9 11 0 22 -9 11 -8 14 2 14 11 0 11 2 -1 10 -8 5 -11 10 -7 10 4 0 3
10 -4 21 -7 14 -7 19 0 15 5 -4 15 4 22 16 11 21 11 22 -4 9 -10 -7 -17 -9
-17 -3 0 16 33 24 43 10 6 -9 7 -7 3 6 -5 14 -2 17 9 12 9 -3 13 -2 10 4 -3 5
-8 19 -10 29 -3 15 2 19 20 16 21 -2 22 1 14 22 -12 32 -11 42 2 20 8 -14 14
-16 25 -6 8 6 14 8 14 3 1 -5 8 3 16 19 8 15 19 27 24 27 6 0 10 6 10 13 0 6
-14 -3 -31 -20 -16 -18 -35 -33 -42 -33 -8 0 -7 4 2 9 13 8 13 12 0 28 -13 16
-13 17 4 4 13 -11 20 -11 32 -1 8 7 12 17 8 23 -3 5 -1 7 4 4 6 -4 22 4 36 17
19 18 28 21 37 12 8 -8 9 -7 4 7 -5 13 -2 16 12 10 12 -4 15 -3 10 6 -4 6 -4
11 1 10 4 -1 10 0 13 1 19 7 39 7 34 -1 -3 -5 -9 -7 -13 -4 -5 2 -13 -7 -20
-22 l-12 -26 24 23 c23 22 36 27 78 32 15 2 15 4 2 25 -9 13 -20 20 -27 16 -6
-4 -5 1 3 10 14 18 26 23 16 8z m80 0 c3 -5 2 -12 -3 -15 -5 -3 -9 1 -9 9 0
17 3 19 12 6z m1252 -27 c-3 -3 -12 -4 -19 -1 -8 3 -5 6 6 6 11 1 17 -2 13 -5z
m-1332 -14 c3 -5 1 -10 -4 -10 -6 0 -11 5 -11 10 0 6 2 10 4 10 3 0 8 -4 11
-10z m425 -33 c0 -5 -4 -5 -10 -2 -5 3 -10 14 -10 23 0 15 2 15 10 2 5 -8 10
-19 10 -23z m944 -15 c2 -4 -5 -9 -17 -9 -17 -2 -19 0 -7 7 18 12 18 12 24 2z
m26 -56 c0 -3 -4 -8 -10 -11 -5 -3 -10 -1 -10 4 0 6 5 11 10 11 6 0 10 -2 10
-4z m-1675 -66 c3 -5 1 -10 -4 -10 -6 0 -11 5 -11 10 0 6 2 10 4 10 3 0 8 -4
11 -10z m-35 -60 c0 -5 -4 -10 -10 -10 -5 0 -10 5 -10 10 0 6 5 10 10 10 6 0
10 -4 10 -10z m-765 -60 c3 -5 1 -10 -4 -10 -6 0 -11 5 -11 10 0 6 2 10 4 10
3 0 8 -4 11 -10z m-20 -20 c3 -5 1 -10 -4 -10 -6 0 -11 5 -11 10 0 6 2 10 4
10 3 0 8 -4 11 -10z m2539 -50 c-6 -6 -10 -3 -10 10 0 13 4 16 10 10 7 -7 7
-13 0 -20z m-1839 -58 c-3 -3 -11 0 -18 7 -9 10 -8 11 6 5 10 -3 15 -9 12 -12z
m10 -22 c3 -6 -1 -7 -9 -4 -18 7 -21 14 -7 14 6 0 13 -4 16 -10z m-5 -211 c0
-14 -17 -10 -23 5 -4 10 -1 13 9 9 7 -3 14 -9 14 -14z m1855 -78 c3 -5 2 -12
-3 -15 -5 -3 -9 1 -9 9 0 17 3 19 12 6z m-10 -41 c-3 -5 -12 -10 -18 -10 -7 0
-6 4 3 10 19 12 23 12 15 0z m-40 -198 c-3 -3 -11 0 -18 7 -9 10 -8 11 6 5 10
-3 15 -9 12 -12z m-935 -99 c0 -3 -6 -3 -14 0 -7 3 -20 0 -27 -6 -11 -10 -11
-9 0 5 11 15 41 15 41 1z m-108 -25 c-9 -9 -15 -9 -24 1 -9 10 -9 12 -1 7 6
-3 15 -1 18 5 4 5 10 8 13 4 3 -3 0 -11 -6 -17z m49 5 c13 -17 13 -17 -6 -3
-11 8 -22 16 -24 17 -2 2 0 3 6 3 6 0 17 -8 24 -17z m-1351 -103 c0 -5 -2 -10
-4 -10 -3 0 -8 5 -11 10 -3 6 -1 10 4 10 6 0 11 -4 11 -10z m25 -60 c-3 -5 -1
-10 4 -10 6 0 11 -5 11 -11 0 -8 -5 -8 -15 1 -13 11 -12 30 1 30 3 0 2 -4 -1
-10z m2302 -95 c0 -8 -4 -15 -9 -15 -10 0 -11 14 -1 23 9 10 10 9 10 -8z
m-2024 -192 c-4 -11 -3 -14 6 -9 7 5 10 2 9 -6 -2 -7 3 -12 10 -10 6 1 12 -2
12 -8 0 -15 -9 -12 -35 9 -18 13 -21 21 -12 30 15 15 18 14 10 -6z m202 -153
c3 -6 -1 -7 -9 -4 -18 7 -21 14 -7 14 6 0 13 -4 16 -10z m153 -45 c-3 -3 -9 2
-12 12 -6 14 -5 15 5 6 7 -7 10 -15 7 -18z m1202 10 c7 -9 8 -15 2 -15 -5 0
-12 7 -16 15 -3 8 -4 15 -2 15 2 0 9 -7 16 -15z m-153 -3 c9 -6 7 -11 -7 -20
-12 -7 -20 -8 -20 -2 0 5 6 10 13 10 8 0 7 4 -3 10 -8 5 -10 10 -5 10 6 0 15
-4 22 -8z m-87 -36 c0 -3 -4 -8 -10 -11 -5 -3 -10 -1 -10 4 0 6 5 11 10 11 6
0 10 -2 10 -4z m751 -35 c-7 -5 -11 -13 -7 -19 3 -6 1 -14 -5 -18 -8 -4 -9 -3
-5 4 4 7 2 12 -5 12 -8 0 -6 6 4 18 10 10 15 21 14 24 -2 3 1 1 7 -4 8 -6 7
-11 -3 -17z m-921 -6 c-14 -17 -40 -20 -40 -4 0 5 4 8 8 5 4 -2 14 -1 22 5 21
13 24 11 10 -6z m-535 -5 c3 -5 1 -10 -4 -10 -6 0 -11 5 -11 10 0 6 2 10 4 10
3 0 8 -4 11 -10z m478 -15 c-3 -9 -8 -14 -10 -11 -3 3 -2 9 2 15 9 16 15 13 8
-4z m747 -5 c0 -5 -5 -10 -11 -10 -5 0 -7 5 -4 10 3 6 8 10 11 10 2 0 4 -4 4
-10z"/>
<path d="M1565 1800 c-4 -6 -3 -10 2 -9 20 3 27 -2 13 -11 -9 -6 -10 -10 -3
-10 19 0 24 17 9 29 -10 9 -16 9 -21 1z"/>
<path d="M968 1776 c-11 -8 -12 -14 -4 -21 8 -7 16 -5 28 6 20 21 1 33 -24 15z"/>
<path d="M1677 1733 c-11 -11 -8 -21 9 -27 13 -5 14 -4 6 7 -7 8 -9 17 -5 20
3 4 4 7 1 7 -2 0 -8 -3 -11 -7z"/>
<path d="M835 1641 c-3 -5 -2 -12 3 -15 5 -3 9 1 9 9 0 17 -3 19 -12 6z"/>
<path d="M1864 1315 c3 -23 12 -26 13 -5 1 11 -2 20 -7 20 -4 0 -7 -7 -6 -15z"/>
<path d="M1865 1269 c-4 -6 -5 -12 -2 -15 2 -3 7 2 10 11 7 17 1 20 -8 4z"/>
<path d="M1833 1245 c0 -8 4 -12 9 -9 5 3 6 10 3 15 -9 13 -12 11 -12 -6z"/>
<path d="M1844 1217 c-16 -18 -16 -19 -1 -8 10 8 17 9 17 3 0 -6 -8 -16 -17
-21 -10 -6 -13 -10 -8 -11 17 0 38 18 41 34 4 26 -12 27 -32 3z"/>
<path d="M740 1161 c0 -6 4 -12 8 -15 5 -3 9 1 9 9 0 8 -4 15 -9 15 -4 0 -8
-4 -8 -9z"/>
<path d="M1793 1044 c3 -4 -5 -16 -19 -26 -14 -11 -23 -22 -20 -25 3 -3 20 9
38 26 27 26 30 31 14 31 -11 0 -16 -3 -13 -6z"/>
<path d="M1676 903 c-6 -14 -5 -15 5 -6 7 7 10 15 7 18 -3 3 -9 -2 -12 -12z"/>
<path d="M1624 852 c4 -3 14 -7 22 -8 9 -1 13 0 10 4 -4 3 -14 7 -22 8 -9 1
-13 0 -10 -4z"/>
<path d="M980 815 c13 -14 26 -23 28 -20 5 5 -36 45 -46 45 -3 0 5 -11 18 -25z"/>
<path d="M1107 762 c3 -7 14 -17 24 -22 14 -8 20 -6 29 12 9 20 9 21 -2 7 -7
-9 -19 -14 -26 -11 -10 3 -9 7 3 16 13 9 12 11 -9 11 -15 0 -22 -5 -19 -13z"/>
<path d="M1400 766 c0 -8 4 -17 9 -20 5 -4 7 3 4 14 -6 23 -13 26 -13 6z"/>
<path d="M1347 736 c-4 -10 -1 -13 9 -9 7 3 14 9 14 14 0 14 -17 10 -23 -5z"/>
<path d="M1610 2591 c0 -6 4 -13 10 -16 6 -3 7 1 4 9 -7 18 -14 21 -14 7z"/>
<path d="M990 2559 c0 -5 5 -7 10 -4 6 3 10 8 10 11 0 2 -4 4 -10 4 -5 0 -10
-5 -10 -11z"/>
<path d="M1626 2548 c3 -5 10 -6 15 -3 13 9 11 12 -6 12 -8 0 -12 -4 -9 -9z"/>
<path d="M1740 2537 c0 -2 6 -10 14 -16 11 -9 16 -9 22 1 4 7 4 10 -1 6 -4 -4
-14 -3 -22 3 -7 6 -13 9 -13 6z"/>
<path d="M2017 2399 c7 -7 15 -10 18 -7 3 3 -2 9 -12 12 -14 6 -15 5 -6 -5z"/>
<path d="M300 2139 c0 -5 5 -7 10 -4 6 3 10 8 10 11 0 2 -4 4 -10 4 -5 0 -10
-5 -10 -11z"/>
<path d="M192 2023 c-16 -12 -15 -13 3 -7 20 6 20 5 1 -10 -14 -12 -16 -16 -5
-16 8 0 22 11 31 24 14 19 14 23 2 23 -8 0 -22 -6 -32 -14z"/>
<path d="M113 1839 c-2 -23 3 -25 10 -4 4 8 3 16 -1 19 -4 3 -9 -4 -9 -15z"/>
<path d="M2476 1842 c-3 -5 1 -9 9 -9 8 0 12 4 9 9 -3 4 -7 8 -9 8 -2 0 -6 -4
-9 -8z"/>
<path d="M67 1773 c3 -7 6 -13 8 -13 2 0 5 6 8 13 3 8 -1 14 -8 14 -7 0 -11
-6 -8 -14z"/>
<path d="M20 1632 c0 -6 5 -14 10 -17 6 -4 7 -11 4 -17 -4 -7 -2 -8 5 -4 9 6
9 12 -1 24 -7 10 -14 19 -15 21 -2 2 -3 -1 -3 -7z"/>
<path d="M4 1030 c3 -28 26 -68 26 -46 0 5 8 2 18 -5 15 -13 16 -12 3 3 -7 10
-17 16 -21 13 -11 -7 -21 22 -14 39 3 8 1 17 -5 20 -7 5 -9 -4 -7 -24z"/>
<path d="M2562 1018 c-18 -18 -14 -25 15 -25 21 0 23 1 9 9 -9 5 -14 13 -11
19 8 13 1 11 -13 -3z"/>
<path d="M2577 969 c7 -7 15 -10 18 -7 3 3 -2 9 -12 12 -14 6 -15 5 -6 -5z"/>
<path d="M6 958 c3 -5 10 -6 15 -3 13 9 11 12 -6 12 -8 0 -12 -4 -9 -9z"/>
<path d="M70 828 c-12 -8 -12 -9 3 -4 9 3 17 1 17 -3 0 -5 -5 -11 -12 -13 -7
-3 -5 -7 6 -11 9 -4 15 -3 11 2 -3 5 0 11 6 13 7 2 7 8 -3 15 -10 8 -18 9 -28
1z"/>
<path d="M107 765 c3 -8 9 -12 14 -9 12 7 11 11 -5 17 -10 4 -13 1 -9 -8z"/>
<path d="M552 241 c4 -13 18 -16 19 -4 0 4 -5 9 -11 12 -7 2 -11 -2 -8 -8z"/>
<path d="M565 200 c3 -4 16 -7 30 -7 32 0 26 8 -9 11 -14 2 -23 0 -21 -4z"/>
<path d="M1995 100 c-4 -6 -12 -7 -18 -4 -7 4 -8 3 -4 -1 13 -15 34 -14 34 1
0 17 -4 18 -12 4z"/>
<path d="M951 57 c-1 -11 -6 -15 -13 -11 -7 5 -8 3 -3 -5 10 -16 29 2 22 21
-4 8 -6 7 -6 -5z"/>
<path d="M1684 44 c-18 -14 -18 -15 4 -4 12 6 22 13 22 15 0 8 -5 6 -26 -11z"/>
<path d="M1023 16 c0 -7 6 -13 14 -13 7 0 13 4 13 8 0 4 -6 9 -13 12 -8 3 -14
0 -14 -7z"/>
</g>
</svg>
