<svg version="1.0" xmlns="http://www.w3.org/2000/svg" width="346.667" height="346.667" viewBox="0 0 260 260"><path d="M97.7 1.3c-.8.6-.7.7.5.3 1-.3 2-.1 2.3.4.5.9 3.5.6 5.8-.5.6-.4.3 0-.7.9-1 .8-2.3 1.3-2.8 1-.4-.3-1.1.1-1.4 1-.3.8-1.2 1.7-2 2-.9.3-1.2.1-.9-.4.3-.6.1-1-.5-1s-.8-.5-.5-1.1c.4-.6-.2-.5-1.4.3-1.2.7-2.1 1.6-2.1 2.1 0 .4-.5.5-1 .2-.6-.4-.7-1.1-.4-1.7.4-.7.2-.8-.5-.4-.6.4-.9 1.2-.6 1.7.5.8-.8 1.1-3.1.8-.4 0-1.1.5-1.6 1.3-.8 1-.9 1-.5-.2.2-.8 1-1.4 1.6-1.3.6.2 1.1-.2 1.1-.7 0-.6-.3-1-.7-1-1.3.1-4.3 2.7-3.7 3.2.2.3-.2.8-1 1.1-1 .4-1.4 0-1.1-1.3.2-1.1 0-2.2-.5-2.5-.4-.3-.7.3-.6 1.2.2 1-.4 2.4-1.3 3.1-.9.8-1 1-.2.6.9-.4 1.2-.3.7.4-.4.6-1.3.9-2.1.5-.8-.3-1.5 0-1.5.6s.5 1.1 1.2 1.1c.6 0 .8.3.4.7-.4.5-1.4-.1-2.2-1.1-1.2-1.7-1.4-1.7-1.4-.4 0 .9-.5 2-1.1 2.3-.6.4-.9 0-.7-1 .2-1-.4-2-1.2-2.2-1.3-.4-1.3-.3 0 .6 1.3.9 1.2 1.1-.5 1.2-1.1.1-2.6 0-3.4-.1-1-.1-.9.3.3 1.6 1.5 1.4 1.9 1.5 2.7.3.5-.9.9-1 .9-.2 0 1.9-2 2.6-3.6 1.2-1.8-1.5-2.6-.7-2.6 2.7 0 1.4-.4 2.1-.8 1.5-.4-.7-2.2-1.4-4.1-1.6-2.3-.3-2.9-.2-2 .4.8.5 1.6 1.7 1.7 2.5.1.9-.2 1.4-.7 1-.5-.3-.6-1.1-.2-1.7.5-.8.2-.8-.9 0-.8.7-1.9.9-2.3.5-.5-.4-.4-.1 0 .7.6 1.1.4 1.3-.9.8-1-.4-1.5-.3-1.1.3.7 1.1-2.9 3.2-4.1 2.2-.5-.4-.3 0 .4 1 1 1.2 1 1.8.1 2.4-.7.4-.9.3-.6-.2.3-.6-.3-1.6-1.5-2.3-1.6-1-1.9-1-1.2.1 1.4 2.2 1.3 4-.2 5.5-.8.8-1.4 1.1-1.4.6 0-.5.5-1.4 1.2-2.1.9-.9.9-1.2 0-1.2-.7 0-1.2.4-1.2 1 0 .5-.6.8-1.2.6-.7-.1-1-.1-.5.1 1.8 1.1.5 3-1.8 2.8-2.1-.3-2.3 0-1.6 1.4.6 1 .6 2.3.1 3.1-.5.8-.6 1.9-.3 2.5.4.5.2.7-.2.2-1.2-1.1-1.4-4.7-.2-4 .6.4.7.1.3-.6-.8-1.2-2.1-.7-2.1.7 0 .4-1 1.7-2.2 2.9-1.3 1.3-2.1 2.8-1.9 3.5.1.7.1 1-.1.5-.3-.4-1.1-.7-2-.7-1.2 0-1.2.2.1 1.6 1.8 1.7 2.1 2.8.7 1.9-.5-.3-1.2-.1-1.6.5-.4.6-1.1.7-1.7.4-.8-.5-.9-.1-.5 1.2.7 1.8.7 1.8-.8 0-1.4-1.9-1.5-1.9-1.5.8 0 1.7.4 2.5 1.1 2 .8-.4.8 0 0 1.5-1.3 2.3-2.3 2.9-1.5.8.3-.8-.4-1.3-1.8-1.4-1.8-.2-2 0-.8.7.8.5 1.1 1 .7 1-.4 0-.3 1 .4 2.1.6 1.3.7 1.9.1 1.5-1.4-.8-5 4.5-4.4 6.4.2.9-.2.6-1.1-.5-.8-1.1-1.9-1.7-2.3-1.2-.4.4-.2.7.4.7 1.8 0 1.4 2.5-.5 4.1-1.5 1.3-1.5 1.2-.4-1.1 1.1-2.2 1-2.3-.2-.8-.8 1-1.7 1.5-2 1.1-.4-.3-.7-.4-.7 0 0 .3.7 1.3 1.6 2.2 1.5 1.4 1.4 1.5-1 1.1-1.4-.2-2.9 0-3.2.6-.4.6-.3.8.2.5.6-.3 1.6-.2 2.4.4 1.1.6 1.1.9.2.9-.8 0-1.1 1.1-.9 3.4.4 3.2.2 3.4-2.5 3.2-1.6-.1-3.2.2-3.5.7-.3.6-.1.7.5.3.7-.4 1.2-.2 1.2.4 0 .6.4.9.8.6.4-.2 1.4 0 2.2.6 1.2.8 1.2.9-.2.4-2.3-.7-4.2 2.6-2.5 4.4 1 1.2.9 1.2-.5.1-2.1-1.5-2.4-.2-.6 1.8 1.1 1 .9 1.2-.7.9-1.5-.2-1.9.2-1.7 1.6.2 1.1-.4 2.6-1.4 3.3-2.2 1.6-1 1.7 1.9.2 2.1-1.1 2.1-1.1.6.7-1.8 2.1-2.3 7.8-.6 6.7.6-.3.7-.1.3.5-.5.8-1.3.8-3.1 0-1.3-.6-2.2-1.4-2-1.9.3-.4.2-1-.2-1.2-1.1-.7-1 9.5.1 11.2.6 1 .6 1.2-.3.7-.9-.6-1.2 4.1-1 20.8.1 11.9.6 21.6.9 21.6.4 0 1.2 1 1.9 2.2l1.2 2.3-.5-2.4c-.4-1.7-.2-2.1.6-1.3 1.4 1.4.2 4.6-1.3 3.6-.8-.4-.9-.3-.5.5.4.7 1.7.9 2.9.6 1.6-.5 1.8-.4.8.3-1.6 1.1-.5 3.6 1.1 2.6.7-.5.8-.2.3.7-1.3 2-1.8 7.8-.5 5.9 1.3-2 1.3-.8 0 2.6-1 2.4-.9 2.6.5 1.4 1.4-1.1 1.6-1.1 1.3.1-.2.8-1.2 2-2.3 2.7-2 1.3-2 1.3.1.7 1.3-.3 2.6.1 3.4 1 .7.8 1.6 1.3 1.9 1 .4-.2.8.2.8 1s-.4 1.2-.9.9c-1.3-.8-.9.6.6 2.1.7.8 1.6 1.2 2 1 .3-.3.2.1-.4.7-1.3 1.5-1.3 4.8 0 4.8.5 0 .6.8.3 1.7-.6 1.6-.5 1.6 1 .5 1.4-1.2 1.6-1.1 1.4.7-.1 1.5-.6 2-1.7 1.6-.8-.3-.4.3.9 1.3 1.6 1.3 2.1 2.4 1.6 3.3-.7 1.2-.6 1.2.7.1 1.3-1 1.8-1 2.4-.1.5.8.3.9-.6.4-1-.6-1.2-.4-.7.8.3.9.1 1.8-.6 2.1-.9.3-.8.5.1.5.7.1 1 .6.6 1.3-.4.6-.3.8.3.5 1.2-.8 4.6 2.7 3.6 3.6-.3.4-.1.7.5.7 1.5 0 1.5-1.3 0-2.8-.7-.7-.9-1.2-.4-1.2 1.1 0 3.6 2.7 3 3.2-.2.3-.6 1.4-.8 2.5-.3 1.3.2 1.9 1.7 2.1 1.6.1 1.8-.1.8-.7-.7-.5-.9-1.1-.5-1.3.5-.3.2-.3-.6-.1-1.1.3-1.2.1-.3-.7.8-.9 1.6-.9 3-.1 1 .6 1.3 1.1.8 1.1-.6 0-1.1.9-1.2 2.1-.2 1.8 0 1.9 1.4.7 1.5-1.2 1.5-1.1.3 1.2-1.3 2.4-1.2 2.4.5 1 1.1-.9 1.6-1 1.1-.3-.4.8-.2 1.3.4 1.3.6 0 .8.4.5 1-.3.5-.1 1 .5 1s.9.4.5.9c-.3.5-.1 1.2.5 1.6.6.4.8 1.1.5 1.6-.3.5.1.6.9.3.9-.3 1.6-1 1.6-1.6 0-.5-.5-.6-1.2-.2-.7.5-.8.3-.3-.6.6-.9.4-1.1-.6-.5-.8.5-1 .4-.6 0 .9-1.1 3.7-1.6 3.6-.7-.1.4-.1 1.7 0 3 .1 1.9.5 2.2 2.4 1.7 2.2-.6 2.1-.6-.2.8-2 1.2-2.1 1.5-.7 2 1.2.5 1.5.3 1.1-.6-.4-.6 0-.3.9.7.8 1 1.3 2.3 1 2.7-.3.5 0 .9.6.9s1-.7.8-1.6c-.2-1 .4-1.9 1.2-2.1 1.3-.4 1.3-.3 0 .6-1 .7-1.1 1.1-.3 1.1s1.1 1.1.9 3c-.2 2.1 0 2.8.8 2.1.7-.6 1.6-.4 2.3.4 1 1.1 1 1.4 0 1.8-.7.2.2.4 2 .4 2 0 3-.4 2.5-1.1-.3-.6.5-.4 1.8.5 1.4 1 2.4 2.3 2.2 3.1-.1.8.5 1.5 1.3 1.6.8.1 2.2.3 3 .4.8.1 1.2.5.9 1-.3.4 0 .8.6.8s.8.4.5 1c-.3.6.1.7.9.4 1.3-.5 1.3-1 .5-2.7-1.2-2.2-1.2-2.2.8-.2 1.9 2 1.9 2-.1 3.8-1.2 1-1.6 1.6-1.1 1.3.6-.2 1.7-.1 2.5.4.9.5 1.9.5 2.6-.1.9-.8 1.1-.4.7 1.3-.5 2.3-.5 2.3 1.2.3 1.3-1.5 1.5-1.6 1.2-.3-.8 2.2.3 3 2.1 1.5 1.1-.8 1.4-.8.9 0-.4.6-.2 1.5.4 1.9.8.4.9.3.5-.4s-.2-1.2.5-1.2c.8 0 .8-.5-.2-1.8-1.3-1.6-1.3-1.6.7.1 1.1.9 2.4 1.4 2.9 1 .4-.5.5-.2.1.4-.4.8-.2 1.3.5 1.3s.9.3.6.6c-.4.4-1.3.2-2-.4-1-.9-1.4-.8-1.4.3 0 .8.2 1.3.5 1.1.2-.3 1.5-.1 2.9.5 1.7.6 2.2.6 1.7-.3-.4-.7-.3-.8.5-.4.7.5.9 1.7.5 2.9l-.6 2.2 2.1-2.3c2.3-2.4 4.1-3.1 2.2-.9-1.1 1.4-.5 2.7 1.3 2.7.6 0 .5-.4-.2-.9-1-.6-.9-1 .7-1.4 1.2-.3 1.9-.1 1.5.4-.3.5 0 .9.6.9s1.3-.7 1.7-1.6c.5-1.4.8-1.4 1.7.4 1.1 2 1.4 2.2 3.6 2.2.6 0 1 .5 1 1.1 0 .8-.4.8-1.4 0-1.1-.9-1.6-.9-2.2.1-.4.7-.4 1 .1.6.4-.4 1.3 0 2 .8 1 1.4 1.3 1.2 2.4-1.5.8-1.7 1.8-3.1 2.3-3.1.6 0 .5.7-.2 1.5-.7.9-1 1.9-.6 2.2.4.4 1.2.1 1.7-.7.9-1.2 1-1.1.5.4-.4 1.3-.2 1.7.7 1.3.8-.3 2-.1 2.8.5 1.1.8 1.1.9-.3.4-1-.3-2-.1-2.3.4-.3.5 11.7.8 27.5.9 17.3 0 27.8-.4 27.5-1-.6-.8.8-1.3 2.8-1 .5.1.6-.3.2-.9-.3-.5.1-1.3.9-1.6.9-.3 1.4-.9 1.2-1.3-.8-1.2 4.6-1.1 6.1.1 1.1.8 1.7.8 2.6-.1.9-1 .8-1.1-.4-.6-1 .4-1.9 0-2.3-1.1-.5-1.4-.4-1.5.8-.5 1 .8 1.6.9 2.1.1.9-1.4 2.5-.2 1.9 1.4-.3.8-.1 1.7.5 2.1.7.4.8 0 .4-1.1-.4-1-.2-1.5.3-1.1 1.3.7 2.8-.3 4.2-2.8.6-1.1 1.2-1.4 1.2-.7s.5 1 1.2.6.8-.3.4.5c-.4.6-1.2.9-1.7.6-.5-.4-.9-.2-.9.3 0 .6.7 1.2 1.5 1.6.8.3 1.4 0 1.2-.5-.1-.6.8-1.3 2.1-1.5 1.3-.2 2.1 0 1.8.4-.2.4.6.8 1.9.8 1.6 0 2.1-.4 1.7-1.6-.5-1.2-.3-1.3.9-.3 1.3 1 1.6 1 1.6-.1 0-1.7-2.6-1.4-3.7.3-.4.8-1 .9-1.4.3-.3-.5.1-1.3 1-1.6 1.4-.5 1.4-.9.3-2.4-1.3-1.5-1.2-1.6.4-.3.9.7 1.7 1 1.7.6s.6-.2 1.4.5c.8.6 2.3 1.1 3.3 1 3.2-.4 4.3 0 4.1 1.2-.2.8.5 1.2 1.7 1 2.3-.5 3.6-2.1 2.8-3.7-.4-.5-.2-.6.2-.2 1.2 1.1 1.5 3.7.4 3.7-.5 0-.9.5-.9 1.1 0 .5.4.8.9.5.5-.4 1.1 0 1.4.6.3 1 .8 1 1.8-.1.9-.9.9-1.1.2-.7-.7.4-1.3.2-1.3-.3 0-.6.7-1.1 1.5-1.1s1.5.9 1.5 1.9c0 1.1.4 2.2.9 2.5.5.4.7-.2.4-1.3-.6-2.3 1.5-3.8 2.3-1.7.3.9 1 1.6 1.5 1.6.4 0 .5-.8.2-1.7-.6-1.5-.5-1.6.9-.3.9.8 1.4 1.8 1.2 2.1-.2.3.4.6 1.2.6.8 0 1.3-.5 1.1-1.1-.3-.6.6-1.1 1.8-1.1 1.5 0 2.1.5 2 1.5-.2.8-.4 1.7-.4 2-.1.3-.6-.2-1.1-1-.5-.8-1-1-1-.4 0 2.2 1.4 2.3 3.7.2 1.3-1.2 2.3-2 2.4-1.7 0 .2.2 1.2.4 2.2.2.9-.1 1.5-.6 1.1-.5-.3-.9.1-.9 1 0 .8-.6 1.6-1.2 1.9-.7.2 5.5.4 13.9.4 14.2.1 15.1 0 14.8-1.8-.5-2.5 1.1-3.4 2.4-1.2.7 1.3 1-2.1 1-11 0-11.6-.2-12.8-1.7-12.2-.9.3-1.3.3-1-.1 1.3-1.2-1.2-4.4-3-3.8-1.4.5-1.5.4-.2-.5s1.2-1.2-.4-2.4c-1.5-1.1-1.6-1.6-.6-2.2.9-.5 1.1-.4.6.3-.4.7-.3 1.2.3 1.2.5 0 1.8 1.4 2.8 3 2 3.5 2.9 3.8 2.9 1.1 0-1-.6-1.7-1.2-1.4-.6.2-1.8-1-2.5-2.6-.8-1.7-1.7-3.1-2.1-3.1-.5 0-.8-.5-.8-1.1 0-.5.4-.8.8-.5.4.2.8-.6.8-2 0-1.6-.5-2.3-1.3-2-.7.3-1.5 0-1.9-.6-.4-.7-.3-.8.4-.4s1.2.2 1.2-.4c0-.6.4-.9.8-.6.5.3.9-.1.9-.9s-.3-1.2-.7-1c-.3.2-1.2 0-2-.6-1.2-.7-1.2-.9-.1-.9.7 0 1.1-.6.7-1.5-.3-.8 0-1.5.7-1.6.7 0-.1-.7-1.8-1.4-1.6-.7-3.4-1.1-3.9-.7-.5.3-.6 0-.2-.6.3-.5.1-1.2-.6-1.4-.7-.3-.5-.7.6-1.1.9-.4 1.5-.3 1.2.2-.3.5.1 1.2 1 1.5 2.5.9 2.7.7 1-1-.9-.8-1.4-2-1-2.5.7-1.2-1.8-.7-2.9.6-.5.6-.7.3-.3-.7.3-1.1 0-1.8-.7-1.8-.8 0-.8-.3.2-.9.8-.5 1.1-1.6.7-2.6-.5-1.3-.2-1.6 1-1.1 1.4.5 1.5.4.4-.9-.7-.8-1.7-1.2-2.3-.8-.6.3-.7.1-.3-.6.4-.6 1.1-.9 1.6-.6.5.3 1.1.1 1.4-.4.4-.5.1-1.3-.5-1.7-.8-.4-.9-.3-.5.4.5.8.1 1-.9.5-1.2-.4-1.3-.8-.5-1.3.6-.4 1.1-1 1.1-1.4-.3-2.1.1-2.7 1.4-2.3.8.4 1.7.1 2.1-.5.4-.7.3-.8-.4-.4s-1.2.3-1.2-.3c0-.5.5-1.1 1.2-1.3.7-.3.5-.7-.6-1.1-.9-.4-1.5-.3-1.1.2.3.5 0 1.3-.6 1.7-.7.4-.9.3-.5-.4.3-.5 0-1.3-.6-1.5-1-.4-1-.6 0-.6.7-.1 1-.6.6-1.3-.4-.6-.3-.8.3-.5 1.2.8 2.7-2 2.4-4.3-.2-1.3 0-1.3.8-.1.6 1 .5 2.1-.5 3.6-1.2 1.9-1.2 2.1.9 2.2 1.7.2 1.9 0 .7-.7-1.2-.8-1.2-1.2-.2-1.8.8-.5 1-1.6.6-2.7-.5-1.2-.4-1.6.4-1.1.6.3 1.4.2 1.7-.4.4-.6.3-1-.2-.9-2.5.4-3.6-.3-1.6-1.1 2.1-.9 2.4-3.3.8-6-.3-.6-.2-1 .3-1 1.3 0 2.2-3.9 1.1-4.6-.5-.3-.9-.2-.8.3.4 2.2-.3 3.3-1.8 3.3s-1.6-.2-.3-1c.8-.5 1.5-1.3 1.5-1.7.2-2 1.7-5.3 2.6-5.3.5 0 .9-.6.9-1.4 0-.8.5-1.8 1.1-2.2.7-.4.9 0 .5 1.2-.3 1.1-.2 2.5.3 3.2.5.8.9-9.4.9-23.3.1-22.7-.1-24.8-1.8-26.5-1-1-2.1-1.6-2.4-1.3-.3.4-.6.3-.6-.1s.7-1.5 1.6-2.3c1.2-1.3 1.5-1.3 1.4-.2-.4 2.3 0 3.9.8 3.9 1.2 0 .8-6.3-.5-8.5-.7-1.1-1.3-1.4-1.3-.7s-.4 1-1 .7c-.5-.3-1-.1-1 .5s.7 1 1.6.8c1-.2 1.9.4 2.2 1.2.3.8.1 1.2-.3.7-.5-.4-2 0-3.4 1-2.3 1.5-2.5 1.5-1.3 0 .8-.9 1.1-2.1.7-2.7-.4-.6-.1-1.8.7-2.7.9-1.2.9-1.5.1-.9-.7.4-1.3.3-1.3-.3 0-.5-.3-1.7-.7-2.7-.4-1-.2-1.5.3-1.1.6.3 1-.5 1-1.8 0-1.4-.6-2.7-1.3-2.9-1.4-.6-1.4 1.5 0 2.5.5.3.2.9-.6 1.2-1 .4-1.3-.2-1.2-2.1 0-1.5.6-2.7 1.2-2.7s1.5-.4 2-.9c.4-.5.3-.6-.3-.3-.7.4-1.4 0-1.8-.8-.3-.8 0-1.5.7-1.5.8 0 .7-.4-.3-1s-2-.4-3.1.6c-1.4 1.2-1.6 1.2-1.6-.1 0-.8.4-1.2.8-1 .4.3.9-.2 1.2-.9.6-1.6-1.6-4-2.6-2.9-.4.3-.7.1-.7-.6s-.5-.9-1.2-.5c-1 .6-1 .4-.1-.7.7-.7 1.3-2.4 1.3-3.7 0-1.8-.4-2.3-1.8-2-1.3.4-1.8-.1-2-1.9-.1-1.4.2-2.1.8-1.8.6.4.8 1 .6 1.4-.3.4.1.8.8.8.7 0 1.3-.6 1.3-1.3 0-.7-.3-1.1-.7-.9-1.3.8-4.2-3.3-3.4-4.7.4-.7.4-1-.1-.6-.4.4-1.4.1-2.1-.7-1.5-1.5-1.9-2.9-.6-2.1.5.3.9-.2.9-1.1 0-1.2-.5-1.1-1.9.7-2 2.4-2.4 2-.8-1 .8-1.5.5-2.2-1.2-3.4-1.2-.9-1.9-1.6-1.4-1.6s.3-.6-.3-1.3c-.6-.8-.8-1.7-.5-2 .4-.4-.3-.5-1.5-.2-1.1.2-2.1 0-2.1-.6 0-.5-.5-.9-1.2-.9-.6 0-.3.8.7 2 1 1.1 2.1 1.7 2.6 1.5.4-.3 1.1-.1 1.4.5.4.7-.3 1-2.2.7-1.5-.2-2.8-1-2.8-1.8-.1-.8-.7-1.3-1.5-1.1-1.1.3-1.1 0 .1-1.4 1.3-1.5 1.1-1.6-1.1-1-2.5.6-2.5.6-.2-.5 3.4-1.8 2.7-4.6-1-4-.5 0-.8-.4-.8-1 0-.5-.4-.7-1-.4-.6.4-1-.5-1-1.9 0-1.6-.5-2.5-1.2-2.3-.7.1-1.2-.3-1.1-.9.2-1.1-1.1-1.4-5.6-1.5-1.8-.1-2.1-.3-1-1 1.2-.7 1.2-.9-.1-1-.8-.1-1.8-.1-2.2 0-.5 0-.8-.4-.8-.9 0-1.3.5-1.3 4.3.5 2.9 1.4 3 1.4 1.3 0-1.1-.8-2.5-1.5-3-1.5-.6 0-.4-.5.4-1.1 1.1-.8.9-.9-1-.4-1.4.4-2.7.7-3 .7-2.2 0-3-.3-2.6-1.1.3-.5-.5-1.6-1.9-2.5-1.4-.9-2.5-2.2-2.5-2.8 0-.7.6-.4 1.3.6.7.9 2.1 1.9 3.2 2 1.3.2 1.9 1 1.7 2.1-.2.9.1 1.4.7 1.1 1.5-1 .9-4.3-.9-4.3-3.3 0-4-.4-4-1.9 0-1-.6-1.4-1.5-1.1-.9.4-2.4-.6-3.9-2.5-2.3-3-2.4-3-3.1-.9l-.7 2.3-1.5-2.1c-.8-1.2-1.8-1.9-2.2-1.7-.4.3-1.3.1-2-.3-1-.6-.9-1 .4-1.4 1.1-.5 1.4-.3.9.6-.4.6-.3.9.1.4.5-.4 1.8.1 2.9 1 1.5 1.4 1.8 1.4.8.2-.6-.9-.8-2-.4-2.4.4-.5.2-.5-.5-.1-.6.3-1.4.2-1.8-.3-.4-.7-1.5-.7-3.2 0-2.3.9-2.4.8-1.3-.6 1-1.2 1.1-1.8.1-2.8-1-.9-1.1-.8-.5.8.6 1.8.4 1.7-2.2-.5-1.5-1.4-2.2-1.7-1.5-.8 1 1.3 1 1.8.2 1.8-.7 0-.9.5-.5 1.2s.3.8-.5.4c-.6-.4-.9-1.1-.6-1.6.9-1.4-1.9-3-3.5-2-2.8 1.8-3.5 1-.7-.8 1.5-1 2.4-2.1 2.1-2.5-.4-.3-1.3 0-2.1.8-1 1.1-2 1.2-3.2.5-1-.5-2.1-.7-2.4-.3-.4.3-1.3 0-2.2-.7-1-.8-1.5-.9-1.5-.1 0 .6-.5 1.1-1.1 1.1-.8 0-.8-.5.1-1.5.7-.8 1.6-1.2 2.1-.9.5.3.9.1.9-.4 0-.6-1.1-.9-2.4-.8-1.3 0-2.2.5-1.9.9.2.4-.6.6-1.9.3-3.6-.7-5.8-1.7-5.8-2.8 0-.5.5-.6 1.1-.3.7.5.6 0-.1-1.2-1.3-2.1-9-2.8-10.2-.9-.6.8-.8.8-.8-.1 0-1.5-49.3-1.5-51.3 0zm55.3.1c0 .3-.4.8-1 1.1-.5.3-1 .1-1-.4 0-.6.5-1.1 1-1.1.6 0 1 .2 1 .4zm4 .8c0 .5.4.6 1 .3s.7.1.4.9c-.3.9-1 1.6-1.6 1.6-.5 0-.6-.5-.3-1 .3-.6-.1-1-1-1s-1.4.4-1.1.8c.3.5-.1.9-.8.9-1.1 0-1.1-.5-.4-1.7 1.1-1.8 3.8-2.3 3.8-.8zm-6.5 2.6c-.3.3-1.1 0-1.8-.7-.9-1-.8-1.1.6-.5 1 .3 1.5.9 1.2 1.2zM97 6.4c0 .3-.4.8-1 1.1-.5.3-1 .1-1-.4 0-.6.5-1.1 1-1.1.6 0 1 .2 1 .4zm-7 3c0 .2-.8 1-1.7 1.7-1.6 1.3-1.7 1.2-.4-.4C89.2 9.1 90 8.6 90 9.4zM83 12c0 .5-.5 1-1.1 1-.5 0-.7-.5-.4-1 .3-.6.8-1 1.1-1 .2 0 .4.4.4 1zm97.7 1.2c-.3.8-.6.5-.6-.6-.1-1.1.2-1.7.5-1.3.3.3.4 1.2.1 1.9zm17.8 6.7c.3.5.2 1.2-.3 1.5-.5.3-.9-.1-.9-.9 0-1.7.3-1.9 1.2-.6zm2.6 3.8c1.3 1.6 1.2 1.7-.3.4-1-.7-1.8-1.5-1.8-1.7 0-.8.8-.3 2.1 1.3zM57 24.5c-1.4.8-1.9 1.4-1.2 1.5.8 0 1 .5.6 1.2-.6.9-.9.9-1.2 0-.2-.7-.9-1-1.5-.6-.7.3-.1-.4 1.2-1.5 1.3-1.2 2.8-2.1 3.5-2.1.6.1 0 .7-1.4 1.5zm163.4 13.4c1.3 1.4 1.4 2.1.5 2.7-.8.4-1 .3-.5-.4.4-.7.3-1.2-.2-1.2-.6 0-1.2-.7-1.6-1.5-.7-2-.3-1.9 1.8.4zm-182 3.7c.3.8.2 1.2-.4.9-.6-.3-1-1-1-1.6 0-1.4.7-1.1 1.4.7zM227.5 44c.3.5.1 1-.4 1-.6 0-1.1-.5-1.1-1 0-.6.2-1 .4-1 .3 0 .8.4 1.1 1zm8.6 11.1c1.6.8 1.8 1.3.9 2.5-1.4 1.5-3.4.9-2.4-.8.4-.6 0-1.4-.7-1.9-2-1.2-.2-1.1 2.2.2zm6.2 11.9c-.3.3-.8-.1-1-.8-.3-.6-.8-1-1.2-.8-.4.3-.7-.4-.7-1.5 0-1.9.1-1.8 1.7.3 1 1.2 1.5 2.5 1.2 2.8zm-129.8 3.9c-.3.5 0 1.3.6 1.7.6.3 1.5 0 2-.7.7-1.2.9-1.1.9.1 0 1.2.2 1.2.9.2.7-1.1.9-1.1 1.4.1.4 1.1 0 1.5-1.4 1.2-1-.2-1.9 0-1.9.6 0 1.4 3.8.5 6.1-1.4 2.1-1.8 3.4-2.2 2.5-.8-.3.5.1 1.1.9 1.4 1 .4 1.2.1.8-1-.4-1.1-.2-1.4.8-1.1.8.3 1.3 1.1 1.1 1.8-.2 1 0 1.1 1.1.2.8-.7 1.7-.9 2-.5.4.3.7.1.7-.6 0-.8-.7-1.1-1.7-.6-1.5.5-1.6.4-.5-.7s1.6-1 2.6.4c1.5 2.1 2.7 2.3 2.2.5-.1-.6-.1-.9.1-.5.3.5.9.8 1.4.8.6 0 .7-.6.3-1.3-.5-.9-.4-.9.6 0 1.1 1 1.7 1 2.9 0 1.4-1.1 1.4-1 .2.5-.7 1-1.7 1.6-2.1 1.3-.5-.3-1.1-.1-1.5.4-.3.6.6.8 2.1.5 1.4-.3 2.3-.1 2 .4-.3.5.1.9.8.9.8 0 1.1-1 .9-2.6-.3-2.6-.3-2.6.7-.3.8 1.8 1.5 2.2 3.2 1.6 2-.6 2.1-.5.9.9-.7.9-1.7 1.5-2 1.2-.4-.2-.8.2-.8 1 0 1 .4 1.2 1.2.5.7-.5 1.6-.6 2-.2.5.4.5.1.1-.6-.5-.9.1-1.2 2.3-1 1.6.1 2.8.6 2.5 1-.3.4-1 .6-1.7.4-.7-.1-.9-.1-.4.1.4.3.4 1 0 1.6-.4.8-.1.8.9-.1 1.2-1 1.8-1 2.7.2 1.2 1.4 4.5 1.1 3.6-.3-.2-.4.2-.8 1-.8s1.3.3 1.2.6c0 .3.9 2.2 2.2 4.1 1.3 1.9 2.1 2.7 1.8 1.8-.4-1.2-.2-1.5.8-1.1.8.3 1.2.9.9 1.4-.5.9.9 1.2 4.9 1.2 1.3 0 1.5.3.8 1s-.7 1.5.2 2.5c.9 1.2.9 1.6 0 1.9-.7.3-1.3.9-1.3 1.5 0 .7.5.7 1.3-.1.8-.6 1.7-.8 2.1-.4.4.4.5.1.3-.7-.2-.8-.2-1.2 0-.7.3.4.9.4 1.5.1.6-.4.6.2-.1 1.4-.7 1.4-.8 2.3-.1 2.7.6.4.8 1.1.5 1.6-.4.5.2.9 1.1.9 1.6 0 1.6-.1 0-1.9-1.5-1.7-1.5-1.9-.1-2.5 1-.3 1.4-.2 1 .5-.4.6.1 1.9 1.1 3s1.4 2 .9 1.9c-2.7-.6-2.7.2 0 1.5s2.7 1.4.5 1c-1.4-.3-1.9-.2-1.1.1 1.1.5 1.1.8 0 1.6-1.1.7-.9.8.4.4 2.8-.9 3.9.2 2.5 2.7-1.1 2.1-1 2.1.7.7 1.1-.9 1.6-1 1.1-.3-.4.8-.2 1.3.6 1.3 1 0 1 .2-.1.9-.8.5-1.6 2-1.8 3.3-.2 1.7-.1 1.9.6.8.5-.8.8-1.7.5-2.1-.5-1 2.3-.5 3.3.5.4.4.2.6-.6.4-.7-.1-1.6.3-1.9 1.1-.3.9 0 1.1.7.7.6-.4 1.1-.4 1 .1-.3 1.9.2 3.4.9 2.9.5-.3.9.1.9.9 0 1-.4 1.2-1.2.5-.7-.5-1.6-.6-2-.2-.5.4-.5-.1-.2-1 .4-1.2.2-1.5-.9-1.1-1.1.4-1.2.9-.3 1.9.6.8 1.5 1.2 1.9.9.8-.5 2 1.8 2 3.8 0 .7-.7.3-1.5-.7-.8-1.1-1.5-1.5-1.5-.9s.6 1.6 1.4 2.3c.8.6 1.2 1.9.9 2.8-.4 1.4-.3 1.5.5.2.6-.8.9-1.7.6-2.1-.2-.4.1-1.1.8-1.5.7-.4 1-.4.6.1-.4.4 0 1.4 1 2.2 1.6 1.2 1.6 1.3 0 .7-1-.3-1.8-.1-1.8.5s.5 1.1 1.1 1.1c.6 0 .9.9.6 2-.3 1.1 0 2 .6 2 .8 0 .9.3.1.8-.6.4-1 2.6-.9 5 0 2.4-.5 4.8-1.2 5.4-.7.5-1.1 1.3-.9 1.7.3.4-1 .6-2.7.5l-3.2-.2 2.3 1.8c2.5 2 2.9 3.5.8 2.7-.8-.3-1.7.1-2 .9-.3.9-.1 1.2.4.9 1.6-1 1.2.7-.7 2.9-1.7 2-1.7 2 0 .7 1.5-1.2 1.7-1.1 1.4.8-.2 1.2-1.1 3-1.9 4.1-.9 1-1.3 2.2-1 2.6.4.4.1.4-.6 0-.9-.5-1.5-.1-1.9 1.3-.3 1.2-1 2.1-1.5 2.1s-.6-.6-.2-1.3c.5-.9.4-.9-.6 0-.8.7-1.5 2-1.6 2.9-.2 1.2 0 1.4.9.5 2.1-2.1 2.8-1.1.8 1.1-1.8 1.8-2.2 1.9-3.7.7-1.6-1.3-1.6-1.2-.5.9.9 1.8.9 2.2-.1 2-.7-.2-1.2.5-1.2 1.4.1 1.4-.2 1.5-1.5.8-1.3-.6-1.8-.5-1.8.5 0 .8.4 1.2.8.9.4-.2 1.1 0 1.4.6.4.6.3 1-.2.9-.4-.1-1.1 0-1.5.1-.5.1-1.4.3-2 .4-.7.1-1.2.8-1 1.5.1.7-.2 1-.8.6-.6-.3-.8-1.1-.5-1.6.4-.5.1-.9-.4-.9-1 0-1.5 1.3-1.3 3.1.1.3-.6.6-1.4.6-1 0-1.1-.4-.4-1.1.5-.5 1-1.4 1-1.9 0-.4-1 .4-2.3 1.9-1.6 1.8-3.5 2.8-5.8 2.9-1.9.2-3.5.4-3.6.5-.2.1-.7.4-1.3.5-.5.1-1.2.4-1.5.5-.3.1-.9.3-1.4.4-.5 0-1.3.5-1.8 1s-.3.6.4.2c.9-.5 1.1-.2.7.8-.3.8-1.2 1.7-2 2-.9.3-1.2.1-.9-.4.3-.6.2-1-.4-1-.5 0-1.1-.6-1.4-1.3-.2-.6-.2.1-.1 1.8.2 1.6.1 2.4-.2 1.7-.3-.6-1-1-1.5-.6-1.7 1-5 1.3-4.4.3.4-.5.1-.9-.4-.9-.6 0-1.1.4-1.1 1 0 .5-.5 1-1.1 1-.5 0-.7-.5-.4-1 .3-.6.1-1-.4-1-.6 0-1.1.5-1.1 1.1 0 .6-.7.3-1.6-.5-2.2-2.2-2.7-2-1.3.6 1.2 2.3 1.2 2.3-.9.4-1.2-1-1.9-2.3-1.5-2.9.3-.6.1-.7-.5-.3-.7.4-1.2 1.4-1.2 2.2 0 .8-.5 1.4-1 1.4-.6 0-1-.7-.8-1.6.2-1-.3-1.9-.9-2.1-.7-.3-1.3 0-1.3.7 0 .6.5.8 1.2.4s.8-.3.4.4c-.4.6-1.3.9-2.1.5-.8-.3-1.5 0-1.5.7s-.6.5-1.6-.5c-1.3-1.3-1.9-1.3-3.3-.3-1.4 1.1-1.4 1.1-.3-.4.9-1.1.9-1.7.2-2-.6-.2-1.2-1.1-1.4-2-.1-1-.5-2-.9-2.4-.3-.4-.4.6-.2 2.2s.2 2.3-.1 1.6c-.5-1-.9-1-2.2 0-1.4 1-1.5 1-.4-.2.6-.8 1.2-1.7 1.2-2 0-.8-4.4-.5-6.1.5-.7.4-1.1.5-.7.1.4-.5-.4-2-1.8-3.4-2.6-2.9-3-4.2-1.3-4.2.5 0 .7-.5.3-1.1-.4-.8-1.2-.3-2 1.2-1.2 2.2-1.3 2.2-1.5.4-.1-1.1-.1-2.4 0-2.8.1-.5-.3-.6-.8-.3-.5.4-.8 1.5-.6 2.6.2 1.2 0 1.8-.5 1.5-.5-.3-.6-1.7-.4-3.1.4-2.3.2-2.6-1.6-2.1-1.1.3-2 .1-2-.4s.5-.9 1-.9c.6 0 1-.4 1-.9s-.9-.7-2-.4c-1.4.4-2 0-2-1.1 0-1 .4-1.5.8-1.2.5.3.9-.1.9-.9 0-1.3-.4-1.2-1.9.2-1 .9-2.1 1.3-2.5 1-.3-.4-.1-.7.7-.7 1 0 1-.3 0-1.5-1.1-1.3-1-1.5.1-1.2.8.2 1 .2.6-.1-.4-.2-.2-1.1.5-2 1-1.2.7-1.1-1.5.3-1.5 1-3 1.5-3.4 1.1-.3-.3-.1-.6.6-.6s.9-.5.5-1.2c-.5-.7-.2-.8.7-.3 1.2.7 1.2.5.1-.6-1.1-1.2-1.4-1.2-2.3.1-.8 1.1-.9.9-.3-1 .4-1.4 1.2-2.8 1.8-3.2.8-.6.8-.8 0-.8-.6 0-1.7.7-2.4 1.5s-1.8 1.5-2.4 1.5c-.6 0-.3-.5.6-1.1.9-.5 1.5-1.6 1.2-2.4-.4-.8-.9-1.3-1.3-1.1-.4.3-.8-.4-.8-1.5-.2-1.9-.1-1.9 1.6.2 1.4 1.7 1.8 1.9 1.8.6 0-.9-.4-1.4-.9-1.1-.4.3-.8 0-.8-.6s-.6-1.8-1.4-2.6c-1.1-1.1-1.6-1.1-2-.1-.3.6-.3.2 0-1 .4-1.9.2-2.2-1.3-1.7-1.3.4-1.4.3-.5-.3.7-.6 1.4-2.5 1.5-4.4.1-1.9.6-4.1 1.1-4.9.7-1.2.6-1.3-.5-.3-2 1.9-3.4 1.6-1.8-.4 1-1.1 1-1.4.2-.9-.7.4-1.3.2-1.3-.3 0-.6.5-1.1 1.1-1.1.6 0 .3-.8-.7-1.8-1.6-1.5-1.6-1.7-.1-2 .8-.2 1.5-1.2 1.4-2.2-.1-1-.5-1.6-.9-1.4-.5.3-.6 1-.3 1.5.4.5.4.9.1.9-1.6 0-1.3-2.2.6-4.1 1.3-1.2 1.9-2 1.3-1.7-.5.3-1.6-.1-2.4-.9-1.2-1.3-1.1-1.4.7-.9 2.1.7 4-.8 2.3-1.8-.5-.3-.7-1.6-.3-2.8.3-1.1.1-1.9-.4-1.6-.5.4-1-.5-1.1-1.9-.1-1.9.1-2.2.8-1.2.8 1.2 1.3.7 1.1-1.2-.1-.3.6-.6 1.4-.6 1.1 0 1.1.4-.3 1.9-.9 1.1-1.1 1.8-.5 1.8.7 0 1.2-.5 1.2-1.1 0-.5.5-.7 1-.4.6.4.7 1.1.4 1.7-.4.7-.2.8.5.4.9-.6.9-1.1 0-2.2s-.8-1.4.2-1.4c1.1 0 1.1-.2-.1-1-.8-.5-1.1-1-.7-1 .4 0 .3-1-.4-2.1-.7-1.4-.7-1.9 0-1.5.5.4 1.5-.4 2.2-1.6 1.1-2.1 1.1-2.2-.4-.9-1 .7-1.7.9-1.7.3 0-1.6 3.3-2.4 4.3-1 .6.9.7.7.3-.6-.5-1.4-.2-1.7.9-1.2.9.3 1.3.2 1-.4-.3-.5-.8-1.9-1-2.9-.3-1.5.2-1.9 2-1.6 2.1.2 2.2-.1 1.4-2.2-1.2-3.2-1.1-4.2.2-2 .8 1.4 1.4 1.6 2.5.6.8-.6 1.4-.8 1.4-.3.1.5.8-.3 1.6-1.9.8-1.5 1.9-2.7 2.4-2.7.6 0 1-.6 1-1.3 0-.6-1.4.3-3.1 2-1.6 1.8-3.5 3.3-4.2 3.3-.8 0-.7-.4.2-.9 1.3-.8 1.3-1.2 0-2.8-1.3-1.6-1.3-1.7.4-.4 1.3 1.1 2 1.1 3.2.1.8-.7 1.2-1.7.8-2.3-.3-.5-.1-.7.4-.4.6.4 2.2-.4 3.6-1.7 1.9-1.8 2.8-2.1 3.7-1.2.8.8.9.7.4-.7-.5-1.3-.2-1.6 1.2-1 1.2.4 1.5.3 1-.6-.4-.6-.4-1.1.1-1 .4.1 1 0 1.3-.1 1.9-.7 3.9-.7 3.4.1-.3.5-.9.7-1.3.4-.5-.2-1.3.7-2 2.2l-1.2 2.6 2.4-2.3c2.3-2.2 3.6-2.7 7.8-3.2 1.5-.2 1.5-.4.2-2.5-.9-1.3-2-2-2.7-1.6-.6.4-.5-.1.3-1 1.4-1.8 2.6-2.3 1.6-.8zm8 0c.3.5.2 1.2-.3 1.5-.5.3-.9-.1-.9-.9 0-1.7.3-1.9 1.2-.6zm125.2 2.7c-.3.3-1.2.4-1.9.1-.8-.3-.5-.6.6-.6 1.1-.1 1.7.2 1.3.5zM112.5 75c.3.5.1 1-.4 1-.6 0-1.1-.5-1.1-1 0-.6.2-1 .4-1 .3 0 .8.4 1.1 1zm42.5 3.3c0 .5-.4.5-1 .2-.5-.3-1-1.4-1-2.3 0-1.5.2-1.5 1-.2.5.8 1 1.9 1 2.3zm94.4 1.5c.2.4-.5.9-1.7.9-1.7.2-1.9 0-.7-.7 1.8-1.2 1.8-1.2 2.4-.2zm2.6 5.6c0 .3-.4.8-1 1.1-.5.3-1 .1-1-.4 0-.6.5-1.1 1-1.1.6 0 1 .2 1 .4zM84.5 92c.3.5.1 1-.4 1-.6 0-1.1-.5-1.1-1 0-.6.2-1 .4-1 .3 0 .8.4 1.1 1zM81 98c0 .5-.4 1-1 1-.5 0-1-.5-1-1 0-.6.5-1 1-1 .6 0 1 .4 1 1zm-76.5 6c.3.5.1 1-.4 1-.6 0-1.1-.5-1.1-1 0-.6.2-1 .4-1 .3 0 .8.4 1.1 1zm-2 2c.3.5.1 1-.4 1-.6 0-1.1-.5-1.1-1 0-.6.2-1 .4-1 .3 0 .8.4 1.1 1zm253.9 5c-.6.6-1 .3-1-1s.4-1.6 1-1c.7.7.7 1.3 0 2zm-183.9 5.8c-.3.3-1.1 0-1.8-.7-.9-1-.8-1.1.6-.5 1 .3 1.5.9 1.2 1.2zm1 2.2c.3.6-.1.7-.9.4-1.8-.7-2.1-1.4-.7-1.4.6 0 1.3.4 1.6 1zm-.5 21.1c0 1.4-1.7 1-2.3-.5-.4-1-.1-1.3.9-.9.7.3 1.4.9 1.4 1.4zm185.5 7.8c.3.5.2 1.2-.3 1.5-.5.3-.9-.1-.9-.9 0-1.7.3-1.9 1.2-.6zm-1 4.1c-.3.5-1.2 1-1.8 1-.7 0-.6-.4.3-1 1.9-1.2 2.3-1.2 1.5 0zm-4 19.8c-.3.3-1.1 0-1.8-.7-.9-1-.8-1.1.6-.5 1 .3 1.5.9 1.2 1.2zm-93.5 9.9c0 .3-.6.3-1.4 0-.7-.3-2 0-2.7.6-1.1 1-1.1.9 0-.5 1.1-1.5 4.1-1.5 4.1-.1zm-10.8 2.5c-.9.9-1.5.9-2.4-.1-.9-1-.9-1.2-.1-.7.6.3 1.5.1 1.8-.5.4-.5 1-.8 1.3-.4.3.3 0 1.1-.6 1.7zm4.9-.5c1.3 1.7 1.3 1.7-.6.3-1.1-.8-2.2-1.6-2.4-1.7-.2-.2 0-.3.6-.3s1.7.8 2.4 1.7zM19 194c0 .5-.2 1-.4 1-.3 0-.8-.5-1.1-1-.3-.6-.1-1 .4-1 .6 0 1.1.4 1.1 1zm2.5 6c-.3.5-.1 1 .4 1 .6 0 1.1.5 1.1 1.1 0 .8-.5.8-1.5-.1-1.3-1.1-1.2-3 .1-3 .3 0 .2.4-.1 1zm230.2 9.5c0 .8-.4 1.5-.9 1.5-1 0-1.1-1.4-.1-2.3.9-1 1-.9 1 .8zM49.3 228.7c-.4 1.1-.3 1.4.6.9.7-.5 1-.2.9.6-.2.7.3 1.2 1 1 .6-.1 1.2.2 1.2.8 0 1.5-.9 1.2-3.5-.9-1.8-1.3-2.1-2.1-1.2-3 1.5-1.5 1.8-1.4 1 .6zM69.5 244c.3.6-.1.7-.9.4-1.8-.7-2.1-1.4-.7-1.4.6 0 1.3.4 1.6 1zm15.3 4.5c-.3.3-.9-.2-1.2-1.2-.6-1.4-.5-1.5.5-.6.7.7 1 1.5.7 1.8zm120.2-1c.7.9.8 1.5.2 1.5-.5 0-1.2-.7-1.6-1.5-.3-.8-.4-1.5-.2-1.5s.9.7 1.6 1.5zm-15.3.3c.9.6.7 1.1-.7 2-1.2.7-2 .8-2 .2 0-.5.6-1 1.3-1 .8 0 .7-.4-.3-1-.8-.5-1-1-.5-1 .6 0 1.5.4 2.2.8zm-8.7 3.6c0 .3-.4.8-1 1.1-.5.3-1 .1-1-.4 0-.6.5-1.1 1-1.1.6 0 1 .2 1 .4zm75.1 3.5c-.7.5-1.1 1.3-.7 1.9.3.6.1 1.4-.5 1.8-.8.4-.9.3-.5-.4s.2-1.2-.5-1.2c-.8 0-.6-.6.4-1.8 1-1 1.5-2.1 1.4-2.4-.2-.3.1-.1.7.4.8.6.7 1.1-.3 1.7zm-92.1.6c-1.4 1.7-4 2-4 .4 0-.5.4-.8.8-.5.4.2 1.4.1 2.2-.5 2.1-1.3 2.4-1.1 1 .6zm-53.5.5c.3.5.1 1-.4 1-.6 0-1.1-.5-1.1-1 0-.6.2-1 .4-1 .3 0 .8.4 1.1 1zm47.8 1.5c-.3.9-.8 1.4-1 1.1-.3-.3-.2-.9.2-1.5.9-1.6 1.5-1.3.8.4zm74.7.5c0 .5-.5 1-1.1 1-.5 0-.7-.5-.4-1 .3-.6.8-1 1.1-1 .2 0 .4.4.4 1z"/><path d="M156.5 80c-.4.6-.3 1 .2.9 2-.3 2.7.2 1.3 1.1-.9.6-1 1-.3 1 1.9 0 2.4-1.7.9-2.9-1-.9-1.6-.9-2.1-.1zm-59.7 2.4c-1.1.8-1.2 1.4-.4 2.1.8.7 1.6.5 2.8-.6 2-2.1.1-3.3-2.4-1.5zm70.9 4.3c-1.1 1.1-.8 2.1.9 2.7 1.3.5 1.4.4.6-.7-.7-.8-.9-1.7-.5-2 .3-.4.4-.7.1-.7-.2 0-.8.3-1.1.7zm-84.2 9.2c-.3.5-.2 1.2.3 1.5.5.3.9-.1.9-.9 0-1.7-.3-1.9-1.2-.6zm102.9 32.6c.3 2.3 1.2 2.6 1.3.5.1-1.1-.2-2-.7-2-.4 0-.7.7-.6 1.5zm.1 4.6c-.4.6-.5 1.2-.2 1.5.2.3.7-.2 1-1.1.7-1.7.1-2-.8-.4zm-3.2 2.4c0 .8.4 1.2.9.9.5-.3.6-1 .3-1.5-.9-1.3-1.2-1.1-1.2.6zm1.1 2.8c-1.6 1.8-1.6 1.9-.1.8 1-.8 1.7-.9 1.7-.3 0 .6-.8 1.6-1.7 2.1-1 .6-1.3 1-.8 1.1 1.7 0 3.8-1.8 4.1-3.4.4-2.6-1.2-2.7-3.2-.3zM74 143.9c0 .6.4 1.2.8 1.5.5.3.9-.1.9-.9s-.4-1.5-.9-1.5c-.4 0-.8.4-.8.9zm105.3 11.7c.3.4-.5 1.6-1.9 2.6-1.4 1.1-2.3 2.2-2 2.5.3.3 2-.9 3.8-2.6 2.7-2.6 3-3.1 1.4-3.1-1.1 0-1.6.3-1.3.6zm-11.7 14.1c-.6 1.4-.5 1.5.5.6.7-.7 1-1.5.7-1.8-.3-.3-.9.2-1.2 1.2zm-5.2 5.1c.4.3 1.4.7 2.2.8.9.1 1.3 0 1-.4-.4-.3-1.4-.7-2.2-.8-.9-.1-1.3 0-1 .4zM98 178.5c1.3 1.4 2.6 2.3 2.8 2 .5-.5-3.6-4.5-4.6-4.5-.3 0 .5 1.1 1.8 2.5zm12.7 5.3c.3.7 1.4 1.7 2.4 2.2 1.4.8 2 .6 2.9-1.2.9-2 .9-2.1-.2-.7-.7.9-1.9 1.4-2.6 1.1-1-.3-.9-.7.3-1.6 1.3-.9 1.2-1.1-.9-1.1-1.5 0-2.2.5-1.9 1.3zm29.3-.4c0 .8.4 1.7.9 2 .5.4.7-.3.4-1.4-.6-2.3-1.3-2.6-1.3-.6zm-5.3 3c-.4 1-.1 1.3.9.9.7-.3 1.4-.9 1.4-1.4 0-1.4-1.7-1-2.3.5zM161 .9c0 .6.4 1.3 1 1.6.6.3.7-.1.4-.9-.7-1.8-1.4-2.1-1.4-.7zM99 4.1c0 .5.5.7 1 .4.6-.3 1-.8 1-1.1 0-.2-.4-.4-1-.4-.5 0-1 .5-1 1.1zm63.6 1.1c.3.5 1 .6 1.5.3 1.3-.9 1.1-1.2-.6-1.2-.8 0-1.2.4-.9.9zM174 6.3c0 .2.6 1 1.4 1.6 1.1.9 1.6.9 2.2-.1.4-.7.4-1-.1-.6-.4.4-1.4.3-2.2-.3-.7-.6-1.3-.9-1.3-.6zm27.7 13.8c.7.7 1.5 1 1.8.7.3-.3-.2-.9-1.2-1.2-1.4-.6-1.5-.5-.6.5zM30 46.1c0 .5.5.7 1 .4.6-.3 1-.8 1-1.1 0-.2-.4-.4-1-.4-.5 0-1 .5-1 1.1zM19.2 57.7c-1.6 1.2-1.5 1.3.3.7 2-.6 2-.5.1 1-1.4 1.2-1.6 1.6-.5 1.6.8 0 2.2-1.1 3.1-2.4 1.4-1.9 1.4-2.3.2-2.3-.8 0-2.2.6-3.2 1.4zm-7.9 18.4c-.2 2.3.3 2.5 1 .4.4-.8.3-1.6-.1-1.9-.4-.3-.9.4-.9 1.5zm236.3-.3c-.3.5.1.9.9.9s1.2-.4.9-.9c-.3-.4-.7-.8-.9-.8-.2 0-.6.4-.9.8zM6.7 82.7c.3.7.6 1.3.8 1.3.2 0 .5-.6.8-1.3.3-.8-.1-1.4-.8-1.4-.7 0-1.1.6-.8 1.4zM2 96.8c0 .6.5 1.4 1 1.7.6.4.7 1.1.4 1.7-.4.7-.2.8.5.4.9-.6.9-1.2-.1-2.4-.7-1-1.4-1.9-1.5-2.1-.2-.2-.3.1-.3.7zM.4 157c.3 2.8 2.6 6.8 2.6 4.6 0-.5.8-.2 1.8.5 1.5 1.3 1.6 1.2.3-.3-.7-1-1.7-1.6-2.1-1.3-1.1.7-2.1-2.2-1.4-3.9.3-.8.1-1.7-.5-2-.7-.5-.9.4-.7 2.4zm255.8 1.2c-1.8 1.8-1.4 2.5 1.5 2.5 2.1 0 2.3-.1.9-.9-.9-.5-1.4-1.3-1.1-1.9.8-1.3.1-1.1-1.3.3zm1.5 4.9c.7.7 1.5 1 1.8.7.3-.3-.2-.9-1.2-1.2-1.4-.6-1.5-.5-.6.5zM.6 164.2c.3.5 1 .6 1.5.3 1.3-.9 1.1-1.2-.6-1.2-.8 0-1.2.4-.9.9zm6.4 13c-1.2.8-1.2.9.3.4.9-.3 1.7-.1 1.7.3 0 .5-.5 1.1-1.2 1.3-.7.3-.5.7.6 1.1.9.4 1.5.3 1.1-.2-.3-.5 0-1.1.6-1.3.7-.2.7-.8-.3-1.5-1-.8-1.8-.9-2.8-.1zm3.7 6.3c.3.8.9 1.2 1.4.9 1.2-.7 1.1-1.1-.5-1.7-1-.4-1.3-.1-.9.8zm44.5 52.4c.4 1.3 1.8 1.6 1.9.4 0-.4-.5-.9-1.1-1.2-.7-.2-1.1.2-.8.8zm1.3 4.1c.3.4 1.6.7 3 .7 3.2 0 2.6-.8-.9-1.1-1.4-.2-2.3 0-2.1.4zm143 10c-.4.6-1.2.7-1.8.4-.7-.4-.8-.3-.4.1 1.3 1.5 3.4 1.4 3.4-.1 0-1.7-.4-1.8-1.2-.4zm-104.4 4.3c-.1 1.1-.6 1.5-1.3 1.1-.7-.5-.8-.3-.3.5 1 1.6 2.9-.2 2.2-2.1-.4-.8-.6-.7-.6.5zm73.3 1.3c-1.8 1.4-1.8 1.5.4.4 1.2-.6 2.2-1.3 2.2-1.5 0-.8-.5-.6-2.6 1.1zm-66.1 2.8c0 .7.6 1.3 1.4 1.3.7 0 1.3-.4 1.3-.8s-.6-.9-1.3-1.2c-.8-.3-1.4 0-1.4.7z"/></svg>